<svg width="326" height="325" viewBox="0 0 326 325" fill="none" xmlns="http://www.w3.org/2000/svg">
    <path
        d="M31.8 136.73C31.8425 135.2 31.0295 133.778 30.098 132.565C26.7626 128.227 21.6494 125.5 16.3269 124.229C11.0043 122.959 5.45031 123.04 0 123.507C2.0316 131.181 4.65582 139.652 11.5673 143.558C17.3251 146.81 25.2348 145.614 29.7702 140.8C30.8351 139.673 31.7555 138.28 31.8 136.73Z"
        fill="#9F7DFF" />
    <path
        d="M263.583 105.825C261.398 102.975 261.805 98.8822 263.115 95.5357C266.728 86.2963 276.84 80.0496 286.722 80.9534C286.835 85.3981 285.297 89.6965 283.764 93.869C282.103 98.3877 280.267 103.125 276.527 106.157C272.786 109.186 266.513 109.646 263.583 105.825Z"
        fill="#7A60C4" />
    <path
        d="M63.3383 286.011C66.7682 283.139 70.1591 280.128 72.6518 276.414C75.1446 272.701 76.6873 268.171 76.0446 263.745C75.4001 259.319 72.2463 255.13 67.8979 254.08C63.0143 259.788 60.1641 267.201 59.9678 274.711C59.8604 278.74 60.616 283.039 63.3383 286.011Z"
        fill="#9F7DFF" />
    <path
        d="M112.917 258.107C104.259 255.862 94.9829 255.99 86.7232 252.56C78.6097 249.192 72.2557 242.715 66.1405 236.406C54.675 224.575 42.9577 212.375 36.5203 197.207C30.4626 182.934 29.531 167.072 29.094 151.573C28.8699 143.578 28.8143 135.283 32.0849 127.985C36.5962 117.919 46.5746 111.56 56.2788 106.315C94.4366 85.6879 136.926 73.1169 180.167 69.663C195.846 68.4092 211.834 68.3666 227.053 72.339C242.273 76.3152 256.772 84.6508 265.798 97.5331C278.306 115.382 278.664 138.645 281.319 160.276C282.236 167.735 283.479 175.165 283.87 182.671C285.333 210.756 272.83 240.728 248.195 254.294C240.641 258.453 232.283 260.965 223.846 262.739C201.17 267.509 177.771 267.141 154.603 266.719C147.099 266.583 139.513 266.433 132.244 264.565C125.662 262.874 119.495 259.813 112.917 258.107Z"
        fill="#9F7DFF" />
    <path
        d="M252.7 317.813C252.145 319.257 251.311 320.85 249.811 321.257C248.404 321.665 246.922 320.868 245.867 319.85C242.663 316.813 241.885 312.109 240.255 308.016C239.533 306.199 238.607 304.46 237.496 302.849C233.218 296.515 226.291 291.959 218.735 290.774C218.587 287.052 218.735 282.681 221.791 280.57C224.551 278.644 228.291 279.551 231.495 280.533C232.421 280.811 233.347 281.107 234.273 281.385C235.94 281.903 237.625 282.403 239.292 282.922C241.255 283.533 243.237 284.144 245.015 285.181C248.644 287.293 251.089 291.052 252.608 294.978C255.404 302.238 255.441 310.535 252.7 317.813Z"
        fill="#ED784A" />
    <path
        d="M252.7 317.813C252.145 319.257 251.311 320.85 249.811 321.257C248.404 321.665 246.922 320.868 245.866 319.85C242.663 316.813 241.885 312.109 240.255 308.016C239.533 306.199 238.607 304.46 237.496 302.849C238.31 296.163 234.792 289.367 234.218 282.477C234.181 282.124 234.162 281.737 234.273 281.385C235.94 281.903 237.625 282.403 239.292 282.922C241.255 283.533 243.237 284.144 245.015 285.181C248.644 287.292 251.089 291.052 252.608 294.978C255.404 302.238 255.441 310.535 252.7 317.813Z"
        fill="#373463" />
    <path
        d="M141.094 321.399C141.65 322.844 142.483 324.438 143.984 324.844C145.391 325.251 146.873 324.455 147.928 323.438C151.132 320.399 151.91 315.695 153.54 311.602C154.262 309.787 155.188 308.046 156.299 306.435C160.577 300.102 167.503 295.546 175.059 294.361C175.208 290.64 175.059 286.267 172.004 284.158C169.244 282.232 165.503 283.14 162.299 284.119C161.373 284.399 160.447 284.695 159.521 284.971C157.855 285.49 156.169 285.99 154.503 286.508C152.54 287.119 150.558 287.731 148.78 288.768C145.15 290.881 142.706 294.64 141.187 298.564C138.391 305.826 138.354 314.121 141.094 321.399Z"
        fill="#ED784A" />
    <path
        d="M141.094 321.399C141.65 322.844 142.483 324.438 143.984 324.844C145.391 325.251 146.873 324.455 147.928 323.438C151.132 320.399 151.91 315.695 153.54 311.602C154.262 309.787 155.188 308.046 156.299 306.435C155.484 299.752 159.003 292.955 159.577 286.064C159.614 285.712 159.633 285.325 159.521 284.971C157.855 285.49 156.169 285.99 154.503 286.508C152.54 287.119 150.558 287.731 148.78 288.768C145.15 290.881 142.706 294.64 141.187 298.564C138.391 305.826 138.354 314.121 141.094 321.399Z"
        fill="#373463" />
    <path
        d="M323.445 228.537C308.167 190.835 224.366 222.561 224.366 222.561L192.662 214.521L118.852 217.807C118.852 217.807 71.5792 205.473 63.7083 222.677C56.5728 238.273 28.4267 277.012 170.676 290.676L173.591 297.293L192.614 292.476C201.327 293.085 210.554 293.617 220.375 294.052L228.951 279.236C228.951 279.236 339.65 269.975 323.445 228.537Z"
        fill="#FC697C" />
    <path
        d="M283.866 228.138C275.986 228.399 267.811 231.229 260.222 233.231C251.962 235.412 243.797 237.948 235.7 240.666C231.302 242.142 226.883 243.683 222.477 245.294C222.303 245.229 222.113 245.187 221.887 245.198C212.221 245.596 202.552 245.842 192.879 245.968C183.283 246.094 173.406 245.294 163.863 246.289C163.752 246.302 163.65 246.333 163.556 246.383C151.914 239.753 140.041 233.286 127.116 229.945C126.709 229.838 126.411 230.471 126.82 230.645C143.453 237.683 158.653 246.891 174.275 255.858C181.736 260.14 189.377 264.068 197.311 267.395C206.408 271.212 215.875 273.959 224.411 279.024C226.102 280.028 227.611 277.422 225.944 276.402C218.223 271.661 209.677 268.768 201.247 265.579C198.171 264.414 195.168 263.093 192.192 261.714C206.873 255.341 221.359 248.859 236.519 243.631C244.058 241.031 251.688 238.712 259.361 236.536C267.454 234.242 276.327 233.081 284.109 229.929C285 229.567 284.974 228.101 283.866 228.138Z"
        fill="#E85669" />
    <path
        d="M250.325 222.878C247.767 223.958 245.111 224.941 242.339 225.091C240.606 225.184 238.685 224.854 237.58 223.521C236.148 221.795 236.666 219.237 237.259 217.074C238.463 212.694 239.665 208.316 240.869 203.935C245.219 204.253 248.778 207.383 251.978 210.348C252.606 210.931 253.245 211.524 253.667 212.27C254.31 213.409 254.382 214.774 254.382 216.082C254.38 217.974 254.182 220.047 252.849 221.386C252.154 222.084 251.23 222.495 250.325 222.878Z"
        fill="#FC8F64" />
    <path
        d="M247.83 148.525L234.236 222.9C220.662 225.678 134.86 220.122 134.86 220.122L126.212 205.306L126.934 201.882L138.953 144.969L139.175 143.895C116.637 145.118 110.785 127.228 110.785 127.228C122.508 87.4106 140.713 85.8549 155.528 83.7066C170.344 81.5398 218.495 98.2075 218.495 98.2075L247.83 148.525Z"
        fill="#FEC424" />
    <path
        d="M164.974 208.177C163.955 209.64 162.381 210.658 160.788 211.492C153.418 215.325 144.454 215.955 136.62 213.195C133.824 212.214 131.064 210.732 129.342 208.325C127.99 206.454 127.361 204.158 126.935 201.882L138.954 144.969C139.935 145.266 140.898 145.84 141.639 146.525C145.806 150.321 146.825 156.435 147.028 162.065C147.195 166.285 147.028 170.526 146.621 174.73C146.306 178.027 145.843 181.362 146.269 184.638C146.695 187.918 148.139 191.233 150.88 193.102C154.158 195.326 158.585 195.065 161.992 197.083C165.678 199.287 167.4 204.639 164.974 208.177Z"
        fill="#FEA324" />
    <path
        d="M228.93 170.794C223.496 171.101 219.066 172.531 213.562 170.899C208.897 169.516 205.443 166.086 202.391 162.478L202.413 162.462C203.887 161.304 201.813 159.26 200.356 160.406C193.607 165.705 186.333 171.14 177.351 171.047C169.226 170.962 162.068 164.188 159.537 156.856C159.255 156.041 158.092 156.369 158.253 157.21C159.931 166.01 166.939 172.231 175.699 173.694C185.166 175.274 193.774 169.184 200.932 163.619C205.721 172.829 220.755 179.389 229.548 172.288C230.144 171.809 229.654 170.755 228.93 170.794Z"
        fill="#FEA324" />
    <path
        d="M219.249 80.2938C218.884 78.4493 218.421 76.5436 217.227 75.088C215.021 72.4063 210.965 72.0674 207.61 72.9545C205.552 73.5008 203.595 74.4231 201.865 75.6658C195.542 80.2049 192.922 88.4554 192.662 96.2336C200.576 95.9243 208.567 98.8504 214.412 104.191C215.121 104.841 216.101 105.573 216.942 105.104C217.336 104.886 217.556 104.458 217.745 104.049C221.114 96.7188 220.812 88.2091 219.249 80.2938Z"
        fill="#373463" />
    <path
        d="M212.35 0.0411662C205.524 -0.45701 199.239 3.63767 194.057 8.11015C182.439 18.1366 173.309 31.0263 167.705 45.3141C164.544 53.3738 162.377 62.0632 156.994 68.8414C147.178 81.1976 128.483 84.9127 120.888 98.7449C118.923 102.323 117.875 106.336 116.058 109.99C112.695 116.755 106.848 122.018 103.355 128.717C99.8607 135.417 99.6588 145.079 106.013 149.168C108.843 134.923 111.15 122.806 116.906 110.809C120.566 103.177 127.438 94.0039 134.546 89.4111C141.654 84.8164 152.301 86.1146 157.944 92.4223C164.101 99.3079 161.936 109.903 160.381 119.009C159.294 125.358 158.692 131.788 158.579 138.225C158.479 143.942 159.073 150.348 163.381 154.107C168.633 158.693 177.441 156.826 182.043 151.591C186.647 146.355 187.78 138.875 187.338 131.917C186.893 124.959 185.084 118.142 184.625 111.188C184.004 101.799 185.849 92.4427 187.686 83.2126C189.066 76.2751 190.445 69.3395 191.825 62.4021C192.52 58.9149 193.249 55.3388 195.136 52.3238C197.024 49.3106 200.352 46.929 203.898 47.2068C207.078 47.4531 209.81 49.7958 211.287 52.6238C212.763 55.4517 213.171 58.7093 213.325 61.8928C213.991 75.5862 210.467 89.0814 208.356 102.627C206.246 116.17 205.683 130.667 211.806 142.933C216.469 152.278 224.938 159.652 234.835 162.984C239.815 164.662 245.252 165.338 250.347 164.049C255.442 162.76 260.131 159.315 262.144 154.463C264.039 149.9 263.433 144.666 261.998 139.938C257.494 125.089 245.463 113.277 241.717 98.219C239.532 89.4351 240.345 80.2235 240.937 71.1915C241.354 64.8356 241.654 58.476 241.839 52.1089C242.163 40.8787 242.069 29.3225 237.954 18.8663C233.837 8.41387 223.557 0.857879 212.35 0.0411662Z"
        fill="#373463" />
    <path
        d="M227.773 66.1691C227.495 67.5025 226.662 68.6322 225.828 69.7064C221.476 75.1881 216.402 80.0773 210.735 84.2072C207.642 86.4666 204.142 88.5778 200.29 88.5945C200.271 88.6334 200.253 88.6685 200.216 88.7074C196.919 93.967 196.049 100.727 197.586 106.783C197.845 107.857 198.197 108.892 198.623 109.912C199.605 112.281 201.031 114.839 200.179 117.283C198.975 120.746 193.715 121.098 190.919 118.728C188.122 116.339 187.196 112.45 186.567 108.82C182.418 85.0387 184.048 59.2428 196.864 38.7972C200.068 33.6858 203.734 29.3522 209.568 27.8336C215.828 28.554 219.958 34.871 221.569 40.9806C223.18 47.094 223.236 53.6499 225.847 59.4095C226.847 61.5763 228.236 63.8357 227.773 66.1691Z"
        fill="#FC8F64" />
    <path
        d="M163.34 237.32L185.821 164.864C186.828 161.619 189.938 159.497 193.327 159.739L252.86 164.038C257.643 164.382 260.803 169.166 259.245 173.701L234.94 244.435C233.886 247.5 230.938 249.506 227.701 249.361L169.994 246.785C165.21 246.572 161.921 241.894 163.34 237.32Z"
        fill="#F1E1D4" />
    <path
        d="M110.779 127.222C110.779 127.222 94.4943 181.594 115.17 214.131C117.318 217.509 121.003 219.607 125.003 219.811L159.518 221.568C159.518 221.568 169.425 229.387 173.745 228.461C178.066 227.535 178.175 218.585 182.133 216.733C186.092 214.881 190.702 207.782 184.538 206.856C178.375 205.93 175.597 203.769 175.597 203.769C175.597 203.769 186.072 203.153 184.538 200.375C183.005 197.597 175.751 194.972 171.121 195.898L162.093 199.602L132.693 195.898L139.175 143.89C139.175 143.89 119.422 145.818 110.779 127.222Z"
        fill="#FC8F64" />
    <path
        d="M225.3 214.698C219.909 222.263 210.512 224.812 204.311 220.393C198.113 215.974 197.457 206.261 202.848 198.697C208.241 191.132 217.636 188.584 223.837 193.002C230.035 197.421 230.691 207.135 225.3 214.698Z"
        fill="#373463" />
    <path
        d="M257.1 191.914C254.467 191.92 251.833 192.203 249.259 192.76C247.659 193.105 245.981 193.62 244.942 194.883C243.218 196.974 243.963 200.046 244.281 202.737C244.648 205.83 244.311 209.002 243.303 211.945C242.674 213.786 241.779 215.773 242.477 217.586C242.877 218.621 243.742 219.403 244.616 220.086C246.205 221.327 248.009 222.418 250.013 222.636C253.602 223.031 256.941 220.525 258.967 217.534C260.991 214.543 262.095 211.03 263.849 207.872C265.749 204.448 268.527 200.755 267.295 197.038C266.657 195.105 264.979 193.64 263.097 192.86C261.215 192.081 259.138 191.91 257.1 191.914Z"
        fill="#FC8F64" />
    <path
        d="M200.216 88.7072C198.735 87.4109 197.383 85.9293 196.179 84.1885C192.827 79.3178 190.919 73.1693 189.327 67.5209C189.197 67.0579 188.456 67.0208 188.364 67.5209C188.234 68.0579 188.178 68.6117 188.16 69.1691C187.975 69.1691 187.771 69.2987 187.752 69.521C187.53 74.1509 189.012 78.9289 190.012 83.4273C191.142 88.448 192.438 93.4297 193.827 98.3911C194.66 101.356 195.846 104.336 197.586 106.782C196.049 100.726 196.92 93.9668 200.216 88.7072Z"
        fill="#ED784A" />
    <path
        d="M133.281 195.416C132.093 193.804 129.04 194.849 127.356 195.227C126.08 195.514 123.343 195.797 123.554 197.614C123.598 197.993 123.813 198.201 124.189 198.247C124.241 198.255 124.293 198.26 124.345 198.268C124.708 198.312 124.91 198.047 124.939 197.747C125.597 197.616 129.138 197.262 129.536 197.212C130.875 197.042 132.516 197.418 133.281 196.101C133.393 195.908 133.421 195.606 133.281 195.416Z"
        fill="#ED784A" />
    <path
        d="M149.467 113.374C141.78 119.895 138.928 133.04 138.085 142.567C137.922 144.433 140.839 144.424 140.994 142.567C141.417 137.507 142.457 132.631 144.039 127.814C145.641 122.927 148.652 118.676 150.3 113.861C150.476 113.348 149.817 113.078 149.467 113.374Z"
        fill="#FEA324" />
    <path
        d="M74.2668 109.207C48.8727 120.75 37.8258 152.845 46.5948 178.411C47.8523 182.084 53.7156 180.491 52.4266 176.804C48.0153 164.197 48.3264 147.663 54.086 135.542C58.9474 125.308 68.3516 119.015 75.1779 110.389C75.715 109.711 75.0668 108.844 74.2668 109.207Z"
        fill="#7A60C4" />
    <path
        d="M102.387 39.493C102.543 37.4873 102.878 35.1779 104.596 34.1334C105.195 33.7723 105.893 33.6167 106.574 33.4667C110.108 32.6926 113.641 31.9185 117.175 31.1425C118.014 37.5892 119.773 43.9155 122.381 49.8695C122.707 50.6122 123.053 51.4141 122.886 52.2067C122.72 52.9975 122.083 53.592 121.449 54.0975C117.379 57.3459 111.313 58.9849 106.993 56.0754C104.491 54.392 103.039 51.4733 102.48 48.5102C101.922 45.5471 102.154 42.4987 102.387 39.493Z"
        fill="#373463" />
    <path
        d="M137.556 19.91C137.556 30.9051 125.792 39.8185 111.281 39.8185C96.7705 39.8185 85.0068 30.9051 85.0068 19.91C85.0068 8.91494 96.7705 0.0014652 111.281 0.0014652C125.792 0.0014652 137.556 8.91494 137.556 19.91Z"
        fill="#FEC424" />
    <path
        d="M112.472 39.5977C111.909 37.2735 109.947 34.8067 108.877 33.0714C107.875 31.4472 106.762 29.949 105.566 28.5211C107.408 28.5508 109.264 28.2822 111.086 28.047C112.527 27.8618 114.031 27.8766 115.216 27.2155C113.762 31.1972 112.935 35.4604 112.472 39.5977ZM118.32 20.8355C117.476 22.1541 116.748 23.5505 116.111 24.9913C114.468 23.7597 112.575 24.4116 110.633 24.6857C108.262 25.0228 105.81 25.3432 103.601 26.2969C102.943 25.5932 102.269 24.8987 101.576 24.2098C100.834 23.469 99.8208 24.5542 100.452 25.3358C102.734 28.16 104.73 31.2935 106.555 34.4289C107.973 36.8679 108.701 41.183 111.292 42.4664C111.766 42.6997 112.266 42.496 112.44 41.9997C112.538 41.72 112.566 41.4293 112.592 41.1367C113.251 42.2071 115.39 42.2478 115.596 40.7514C116.507 34.1548 118.379 27.9378 119.802 21.4596C119.998 20.5596 118.822 20.0503 118.32 20.8355Z"
        fill="#373463" />
    <path
        d="M255.551 201.868C254.201 201.211 252.699 201.7 251.259 201.892C249.629 202.109 247.966 202.318 246.434 202.933C245.768 203.202 245.89 204.072 246.599 204.156C248.37 204.363 250.166 204.078 251.925 203.844C253.255 203.667 254.627 203.713 255.672 202.8C255.946 202.559 255.883 202.029 255.551 201.868Z"
        fill="#ED784A" />
    <path
        d="M255.544 209.14C254.253 208.333 252.686 208.452 251.209 208.509C249.553 208.576 247.723 208.702 246.269 209.548C245.884 209.772 245.918 210.465 246.401 210.554C247.773 210.804 249.153 210.598 250.538 210.555C252.133 210.504 253.885 210.874 255.392 210.291C255.892 210.1 256.037 209.448 255.544 209.14Z"
        fill="#ED784A" />
</svg>
    