<svg width="315" height="257" viewBox="0 0 315 257" fill="none" xmlns="http://www.w3.org/2000/svg">
    <path
        d="M112.558 12.0936C121.022 70.0577 104.715 131.222 68.52 177.281C63.3064 149.658 63.5382 121.016 69.197 93.4808C75.4936 62.8402 89.1106 32.8009 112.558 12.0936Z"
        fill="#7FC6A8" />
    <path
        d="M103.74 33.3495C96.7799 42.7997 92.9114 54.9975 89.7957 66.1743C86.4331 78.2312 84.2853 90.6002 82.0678 102.907C79.5943 116.642 77.1223 130.38 74.6715 144.12C73.4628 150.889 72.1617 157.648 71.2226 164.459C70.3592 170.721 69.6064 177.577 71.0196 183.805C71.265 184.879 72.9236 184.626 72.9145 183.549C72.8585 176.796 72.7221 170.356 73.6431 163.628C74.5776 156.806 75.9348 150.032 77.1375 143.257C79.4898 130 81.8239 116.742 84.155 103.483C86.2483 91.5832 88.2916 79.6717 91.2952 67.9632C94.3928 55.8911 99.267 45.0354 104.506 33.7979C104.75 33.2738 104.079 32.8891 103.74 33.3495Z"
        fill="#FEFEFE" />
    <path
        d="M39.9329 7.73444C71.6989 56.9512 82.2609 119.367 68.456 176.295C52.2428 153.329 40.563 127.178 34.2771 99.779C27.2838 69.2898 27.1989 36.3075 39.9329 7.73444Z"
        fill="#659E86" />
    <path
        d="M69.3457 166.439C58.5975 150.582 56.4694 131.132 53.7884 112.644C50.7302 91.5685 47.4115 70.5401 44.1898 49.4904C44.1004 48.9058 43.0765 49.0436 43.1538 49.6313C45.9786 70.8324 48.7096 92.041 51.6951 113.221C54.3306 131.918 56.4497 151.596 67.3327 167.616C68.1718 168.852 70.1924 167.688 69.3457 166.439Z"
        fill="#FEFEFE" />
    <path
        d="M0 81.0948C36.969 101.323 65.0543 137.172 75.8495 177.908C57.7202 168.945 41.3646 156.414 27.9914 141.242C13.1126 124.357 1.74795 103.532 0 81.0948Z"
        fill="#7FC6A8" />
    <path
        d="M62.9364 165.673C61.9034 163.369 60.0676 161.62 58.4363 159.711C56.2355 157.135 54.0558 154.542 51.8822 151.944C47.8486 147.115 43.868 142.243 39.9147 137.349C31.7293 127.212 24.0817 116.584 15.6085 106.69C15.2995 106.328 14.7118 106.796 14.9587 107.191C21.6551 117.88 29.7057 127.817 37.523 137.698C41.4279 142.636 45.3994 147.518 49.4194 152.362C51.5823 154.969 53.7665 157.561 55.9583 160.145C57.8562 162.382 59.589 164.942 62.0867 166.524C62.6623 166.888 63.1712 166.197 62.9364 165.673Z"
        fill="#FEFEFE" />
    <path
        d="M104.983 154.715L26.7283 157.713L30.8937 168.19L38.8124 169.715L49.6273 216.228H94.5726L98.5911 168.19L104.983 164.517V154.715Z"
        fill="#CE7152" />
    <path
        d="M84.509 167.972C77.237 167.526 69.8347 168.335 62.5461 168.463C54.7257 168.599 46.8948 168.434 39.0836 168.066C37.5355 167.993 37.5401 170.401 39.0836 170.466C46.9069 170.797 54.7197 170.847 62.5461 170.619C69.8363 170.407 77.4809 170.338 84.5999 168.634C84.9846 168.541 84.8756 167.995 84.509 167.972Z"
        fill="#B56348" />
    <path
        d="M66.5123 177.559C63.4662 177.024 60.5686 177.334 57.5302 177.781C55.1688 178.13 52.8452 178.537 50.4535 178.631C48.4784 178.71 46.5956 178.092 44.6356 178.02C44.1706 178.004 43.8253 178.685 44.2297 179C46.6865 180.909 49.8961 180.671 52.8664 180.368C57.4105 179.908 61.7925 178.623 66.385 178.499C66.9061 178.486 67.0621 177.654 66.5123 177.559Z"
        fill="#B56348" />
    <path
        d="M62.4283 188.687C57.6373 187.517 50.8394 186.46 46.4014 189.224C45.9333 189.517 46.1484 190.18 46.671 190.218C48.8946 190.377 51.0999 189.762 53.322 189.577C56.2241 189.335 59.2338 189.426 62.1163 189.816C62.8388 189.915 63.1841 188.871 62.4283 188.687Z"
        fill="#B56348" />
    <path
        d="M60.2828 199.967C58.1077 199.935 55.9326 199.862 53.7575 199.83C51.8642 199.803 49.8345 199.591 48.0411 200.268C47.5973 200.436 47.5973 201.003 48.0411 201.169C49.8451 201.849 51.8551 201.61 53.7575 201.607C55.9326 201.603 58.1077 201.504 60.2828 201.469C61.2522 201.454 61.2522 199.982 60.2828 199.967Z"
        fill="#B56348" />
    <path
        d="M41.7701 227.188C38.3287 226.59 34.7616 227.564 31.6914 229.23C28.6211 230.896 25.9658 233.218 23.3409 235.524C27.9985 238.152 33.1364 240.324 38.4847 240.209C43.8316 240.092 49.3996 237.203 51.3293 232.216C48.4196 230.036 45.3523 227.811 41.7701 227.188Z"
        fill="#FC697C" />
    <path
        d="M239.028 218.124C244.043 217.309 249.405 220.593 250.956 225.429C248.018 226.695 246.001 229.461 243.269 231.127C237.955 234.366 230.143 232.348 227.063 226.939C230.329 223.068 234.028 218.939 239.028 218.124Z"
        fill="#FC697C" />
    <path
        d="M47.4583 235.403C46.7964 234.423 46.1647 233.307 46.2904 232.132C46.3965 231.159 47.0024 230.323 47.6022 229.551C67.9747 203.291 105.762 192.112 137.14 203.065C143.352 205.232 149.351 208.181 155.839 209.272C166.526 211.07 177.365 207.66 188.202 207.468C204.072 207.185 219.925 214.234 230.345 226.209C217.6 239.943 199.721 248.06 181.425 252.097C163.129 256.135 144.238 256.4 125.503 256.542C112.129 256.642 98.7002 256.685 85.4603 254.799C70.9526 252.731 55.6558 247.553 47.4583 235.403Z"
        fill="#FC697C" />
    <path d="M157.128 126.109L172.391 124.43L170.492 158.763L157.128 158.006V126.109Z"
        fill="#7A60C4" />
    <path
        d="M166.2 133.896L205.703 109.535C205.703 109.535 212.398 90.8529 216.185 90.3485C219.971 89.8441 226.03 92.3675 226.03 92.3675C226.03 92.3675 229.059 90.0955 231.079 92.8735C233.099 95.6499 227.545 97.9492 227.545 97.9492C227.545 97.9492 227.04 106.186 220.729 109.88C214.417 113.573 178.064 150.432 178.064 150.432L166.2 133.896Z"
        fill="#FC8F64" />
    <path
        d="M314.654 227.731C314.17 228.549 313.306 229.032 312.458 229.411C306.596 232.062 299.871 231.804 293.494 231.033C291.555 230.806 289.541 230.503 287.92 229.411C285.83 228.017 284.739 225.564 283.755 223.248C283.635 222.945 283.497 222.655 283.376 222.354C282.725 220.823 282.073 219.279 281.422 217.749C281.195 217.219 280.968 216.597 281.21 216.068C281.407 215.644 281.846 215.4 282.255 215.189C284.891 213.825 287.526 212.478 290.147 211.13C291.525 213.567 293.48 215.553 295.766 217.113C299.326 219.582 303.705 221.066 308.02 221.733C309.777 222.006 311.625 222.187 313.109 223.155C314.594 224.141 315.548 226.201 314.654 227.731Z"
        fill="#FC8F64" />
    <path
        d="M314.654 227.731C314.17 228.549 313.306 229.032 312.458 229.411C306.596 232.062 299.871 231.804 293.494 231.033C291.555 230.806 289.541 230.503 287.92 229.411C285.83 228.017 284.739 225.564 283.755 223.248C283.635 222.945 283.497 222.655 283.376 222.354C287.072 222.142 290.707 220.839 293.706 218.643C294.403 218.128 295.054 217.583 295.766 217.113C299.326 219.582 303.705 221.066 308.02 221.733C309.777 222.006 311.625 222.187 313.109 223.155C314.594 224.141 315.548 226.201 314.654 227.731Z"
        fill="#9F7DFF" />
    <path
        d="M248.571 238.088C248.056 238.726 247.26 239.032 246.489 239.25C241.157 240.779 235.453 239.72 230.11 238.266C228.484 237.831 226.804 237.32 225.557 236.189C223.947 234.739 223.323 232.51 222.773 230.41C222.707 230.136 222.626 229.874 222.561 229.6C222.196 228.214 221.834 226.816 221.469 225.43C221.34 224.949 221.225 224.39 221.496 223.969C221.718 223.631 222.124 223.478 222.499 223.351C224.917 222.516 227.334 221.695 229.736 220.871C230.609 223.123 232.028 225.059 233.784 226.675C236.513 229.224 240.06 231.038 243.661 232.145C245.126 232.596 246.678 232.982 247.825 233.994C248.968 235.02 249.524 236.895 248.571 238.088Z"
        fill="#FC8F64" />
    <path
        d="M248.571 238.088C248.056 238.726 247.26 239.032 246.489 239.25C241.157 240.779 235.453 239.72 230.11 238.266C228.484 237.831 226.804 237.32 225.557 236.189C223.947 234.739 223.323 232.51 222.773 230.41C222.707 230.136 222.626 229.874 222.561 229.6C225.74 229.88 229.003 229.223 231.836 227.723C232.494 227.372 233.119 226.987 233.783 226.675C236.513 229.224 240.06 231.038 243.661 232.145C245.125 232.596 246.678 232.982 247.825 233.994C248.968 235.02 249.524 236.895 248.571 238.088Z"
        fill="#9F7DFF" />
    <path
        d="M161.568 158.005C161.568 158.005 206.845 108.189 233.982 115.72C255.188 123.251 235.73 226.292 235.73 226.292C235.73 226.292 227.923 230.088 219.214 224.403L218.205 169.112L175.037 190.318L161.568 158.005Z"
        fill="#2D2B52" />
    <path
        d="M124.167 206.98C124.167 206.98 129.195 224.02 149.402 224.398C169.608 224.777 212.777 199.785 233.982 167.598C233.982 167.598 251.022 191.454 262.004 198.649C272.985 205.844 279.044 218.718 279.044 218.718C279.044 218.718 291.162 218.718 293.434 209.63C293.434 209.63 253.004 121.021 235.73 123.293C218.457 125.565 161.568 161.918 161.568 161.918L145.417 182.745L124.167 206.98Z"
        fill="#373463" />
    <path
        d="M287.559 213.801C280.328 200.297 273.273 186.707 265.254 173.646C261.135 166.939 256.793 160.366 252.181 153.988C248.62 149.065 244.895 142.701 239.46 139.673C234.578 136.954 229.93 140.901 226.389 143.894C220.104 149.205 213.782 154.468 207.414 159.68C194.692 170.089 181.599 180.047 168.95 190.542C168.423 190.98 169.12 191.876 169.68 191.49C181.278 183.467 192.346 174.636 203.35 165.828C209.02 161.289 214.648 156.699 220.249 152.073C222.862 149.915 225.465 147.746 228.062 145.568C232.026 142.245 235.94 139.429 240.613 143.369C245.689 147.648 249.474 154.359 253.253 159.77C257.231 165.466 260.966 171.328 264.589 177.255C272.093 189.526 279.191 202.043 286.097 214.654C286.623 215.613 288.074 214.763 287.559 213.801Z"
        fill="#2D2B52" />
    <path
        d="M137.889 18.0163C140.912 15.6625 141.414 10.9791 139.664 7.57106C137.916 4.16301 134.395 1.94854 130.72 0.865532C123.802 -1.17323 115.941 0.464149 110.329 4.99306C104.717 9.52349 101.465 16.7895 101.697 23.9978C102.009 33.6797 108.125 42.6194 107.644 52.2937C107.279 59.6218 103.147 66.2334 98.4072 71.8317C97.5711 72.8193 96.6592 74.1189 97.2151 75.2867C97.4983 75.882 98.1073 76.2515 98.7056 76.5333C104.428 79.2249 111.596 76.5393 115.664 71.6969C119.731 66.8559 121.264 60.3822 121.935 54.0932C122.604 47.8042 122.545 41.4077 124.001 35.255C125.456 29.0993 128.734 22.9982 134.304 20.0036C135.509 19.3553 136.809 18.857 137.889 18.0163Z"
        fill="#373463" />
    <path
        d="M145.417 8.34404C145.417 11.5976 142.778 14.2362 139.524 14.2362C136.271 14.2362 133.634 11.5976 133.634 8.34404C133.634 5.09201 136.271 2.45342 139.524 2.45342C142.778 2.45342 145.417 5.09201 145.417 8.34404Z"
        fill="#FEC424" />
    <path
        d="M161.474 67.1283C154.476 66.8709 152.31 55.7682 152.31 55.7682L141.51 69.6427L138.224 66.3559L130.105 58.2826L143.222 37.077L147.266 26.2318C147.266 26.2318 165.185 22.1876 166.685 22.1876C168.184 22.1876 184.634 19.4157 184.634 19.4157L189.678 25.4744C196.236 38.8491 171.001 68.3855 161.474 67.1283Z"
        fill="#FC8F64" />
    <path
        d="M163.401 39.9793C162.45 43.3904 170.648 38.1829 171.531 34.7536C174.125 34.5249 177.182 35.6215 179.427 34.3022C180.154 33.8751 180.748 33.2586 181.329 32.6497L184.534 29.3083C185.142 28.6752 185.782 28.0193 186.615 27.7361C188.238 27.1862 190.199 28.551 190.246 30.2641C191.491 26.3426 191.471 21.7833 189.717 18.0618C187.962 14.3417 185.09 11.2275 181.821 8.72977C171.449 0.814011 156.622 -0.787014 144.799 4.73251C142.892 5.62314 141.055 6.68797 139.437 8.03604C132.323 13.96 130.616 24.6052 133.085 33.5282C134.307 37.9496 136.838 42.5073 141.193 43.9538L152.315 40.1111C152.315 40.1111 148.782 34.8097 154.334 31.2759C159.889 27.7421 165.905 31.0108 163.401 39.9793Z"
        fill="#373463" />
    <path
        d="M152.311 55.7682L141.511 69.6427L138.224 66.3559C145.706 60.3441 148.024 44.5292 148.024 44.5292L152.311 55.7682Z"
        fill="#ED784A" />
    <path
        d="M170.487 158.767C170.487 158.767 167.639 187.273 143.616 205.465C138.163 209.601 131.635 213.19 123.789 215.81C123.789 215.81 91.4808 196.377 105.613 118.87C110.914 79.4882 112.126 72.5509 120.729 61.1302L126.409 51.9815C126.409 51.9815 144.98 61.0696 149.402 71.1574L145.419 80.0032C145.419 80.0032 151.053 84.0322 154.583 111.054C155.931 121.354 157.506 129.988 159.339 137.031C162.308 148.452 165.958 155.632 170.487 158.767Z"
        fill="#9F7DFF" />
    <path
        d="M246.572 128.17L257.364 119.65L266.072 103.028C266.998 101.26 266.245 99.0773 264.426 98.2563C262.952 97.5913 261.215 98.0321 260.236 99.3181L243.029 121.952C241.487 123.979 242.442 126.923 244.88 127.659L246.572 128.17Z"
        fill="#F1E1D4" />
    <path
        d="M189.678 132.002C189.678 132.002 232.599 139.015 244.714 127.683C244.714 127.683 243.449 121.4 248.246 119.632C253.041 117.866 253.294 113.322 255.313 114.331C257.334 115.341 256.577 117.671 256.577 117.671C256.577 117.671 262.383 103.981 265.665 103.728C268.946 103.476 261.121 123.251 261.121 123.251C261.121 123.251 244.711 159.52 181.347 151.44L189.678 132.002Z"
        fill="#FC8F64" />
    <path
        d="M172.392 151.44L180.085 158.005C180.085 158.005 195.232 136.547 193.213 124.682L185.639 121.147L181.347 126.109C181.347 126.109 165.948 111.807 158.375 98.9323C150.801 86.0575 140.397 67.3314 124.294 83.7854C108.19 100.238 152.701 138.819 175.036 147.907L172.392 151.44Z"
        fill="#9F7DFF" />
    <path
        d="M169.322 179.992C169.234 179.571 168.587 179.587 168.489 179.992C167.563 183.822 167.292 187.676 166.045 191.459C164.282 196.812 161.879 200.193 156.12 201.21C155.208 201.369 155.388 202.618 156.12 202.874C166.386 206.487 170.659 186.467 169.322 179.992Z"
        fill="#2D2B52" />
    <path
        d="M159.338 137.032C150.008 133.896 142.919 127.791 136.572 120.4C130.212 113.022 126.257 104.617 121.668 96.1503C121.547 95.9216 121.213 96.0745 121.274 96.3169C122.925 103.631 126.787 110.569 131.225 116.795C130.983 116.627 130.62 116.901 130.801 117.188C134.543 123.307 138.617 128.974 141.737 135.472C145.145 142.591 147.448 150.193 148.978 157.919C151.977 173.049 151.674 190.59 143.252 203.996C142.904 204.526 143.161 205.147 143.616 205.465C167.638 187.274 170.486 158.767 170.486 158.767C165.957 155.631 162.307 148.452 159.338 137.032Z"
        fill="#7A60C4" />
    <path
        d="M184.965 126.454C184.904 126.003 184.202 125.622 183.962 126.183C182.664 129.214 182.379 132.679 181.249 135.822C179.873 139.653 177.626 143.058 175.541 146.522C175.289 146.939 175.869 147.382 176.21 147.039C178.893 144.314 180.727 141.074 182.278 137.596C183.727 134.346 185.447 130.056 184.965 126.454Z"
        fill="#7A60C4" />
    <path
        d="M145.191 79.8109C144.927 79.6685 144.65 79.5382 144.373 79.408C143.469 76.2635 139.488 73.4234 137.151 71.3983C134.438 69.049 131.247 66.3271 127.725 65.4123C127.501 65.3547 127.359 65.6243 127.507 65.7879C129.903 68.4356 133.186 70.3153 135.867 72.6843C137.233 73.893 138.504 75.2017 139.764 76.5164C140.294 77.0693 140.768 77.6812 141.259 78.2644C135.818 76.78 129.334 77.4571 125.729 81.9754C125.464 82.3056 125.785 82.7236 126.173 82.551C132.253 79.8533 137.863 78.2341 144.117 81.6497C145.323 82.3086 146.4 80.4607 145.191 79.8109Z"
        fill="#7A60C4" />
    <path
        d="M224.121 93.1651C223.197 93.1954 222.473 93.9285 221.746 94.4389C220.808 95.0948 219.864 95.7234 219.046 96.5277C218.748 96.8215 219.125 97.2366 219.471 97.076C220.475 96.6065 221.362 95.9688 222.273 95.3417C223.039 94.8161 224.001 94.3859 224.372 93.4938C224.436 93.3378 224.275 93.159 224.121 93.1651Z"
        fill="#ED784A" />
    <path
        d="M225.713 98.9234C224.808 99.2581 224.046 99.6201 223.298 100.249C222.604 100.833 221.804 101.732 221.863 102.696C221.88 102.951 222.139 103.116 222.371 102.987C223.057 102.612 223.502 101.86 223.999 101.276C224.546 100.629 225.245 99.9549 225.951 99.4853C226.227 99.3036 226.057 98.7977 225.713 98.9234Z"
        fill="#ED784A" />
    <path
        d="M256.525 117.74C256.449 117.201 255.622 117.36 255.607 117.864C255.583 118.608 255.472 119.349 255.275 120.065C255.107 120.676 254.774 121.236 254.727 121.874C254.709 122.102 254.983 122.224 255.163 122.125C256.554 121.357 256.719 119.12 256.525 117.74Z"
        fill="#ED784A" />
    <path
        d="M212.721 228.129C206.743 230.681 201.157 234.073 195.122 236.566C189.409 238.929 183.515 240.836 177.547 242.438C164.862 245.848 151.702 247.334 138.582 247.141C124.533 246.935 110.472 244.472 96.6325 242.231C90.2739 241.199 83.9485 239.984 77.6959 238.427C71.0085 236.763 64.7241 234.139 58.1716 232.081C57.4536 231.857 57.0719 232.881 57.6763 233.261C68.7198 240.227 83.2987 242.537 95.96 244.674C110.024 247.047 124.303 249.413 138.582 249.801C151.505 250.151 164.46 248.527 176.99 245.404C183.418 243.801 189.706 241.667 195.848 239.195C201.94 236.741 208.591 234.047 213.862 230.08C215.036 229.197 214.065 227.555 212.721 228.129Z"
        fill="#E85669" />
    <path
        d="M172.554 230.386C168.759 231.507 165.545 232.97 161.479 233.05C157.679 233.125 154.192 231.873 150.972 230.051C156.011 230.162 160.852 229.288 164.496 226.537C165.322 225.915 164.877 224.509 163.762 224.797C159.337 225.934 155.519 227.264 150.847 227.301C145.881 227.339 140.94 226.262 136.141 225.082C126.261 222.654 117.727 218.282 113.822 208.425C113.559 207.758 112.347 207.766 112.452 208.611C113.706 218.781 124.18 224.108 132.947 226.724C137.238 228.005 142.771 229.433 148.279 229.9C154.071 235.674 167.035 237.863 173.009 231.168C173.309 230.831 173.026 230.247 172.554 230.386Z"
        fill="#E85669" />
    <path
        d="M219.332 31.366C219.452 29.8229 219.71 28.0461 221.032 27.2424C221.492 26.9646 222.03 26.8449 222.554 26.7295C225.273 26.1339 227.991 25.5383 230.71 24.9413C231.355 29.9012 232.709 34.7685 234.715 39.3495C234.966 39.9208 235.232 40.5378 235.104 41.1476C234.976 41.756 234.486 42.2134 233.998 42.6024C230.867 45.1016 226.2 46.3626 222.876 44.1241C220.951 42.829 219.834 40.5834 219.404 38.3036C218.975 36.0238 219.153 33.6785 219.332 31.366Z"
        fill="#373463" />
    <path
        d="M246.391 16.2992C246.391 24.7586 237.34 31.6164 226.175 31.6164C215.011 31.6164 205.961 24.7586 205.961 16.2992C205.961 7.83986 215.011 0.982019 226.175 0.982019C237.34 0.982019 246.391 7.83986 246.391 16.2992Z"
        fill="#FEC424" />
    <path
        d="M227.091 31.4465C226.658 29.6583 225.149 27.7604 224.326 26.4253C223.555 25.1757 222.698 24.023 221.778 22.9244C223.196 22.9472 224.623 22.7406 226.025 22.5597C227.134 22.4172 228.291 22.4286 229.203 21.9199C228.084 24.9833 227.447 28.2634 227.091 31.4465ZM231.591 17.0113C230.941 18.0258 230.381 19.1001 229.891 20.2086C228.627 19.2611 227.171 19.7627 225.676 19.9735C223.852 20.2329 221.966 20.4794 220.266 21.2132C219.76 20.6717 219.242 20.1374 218.709 19.6074C218.137 19.0374 217.358 19.8724 217.844 20.4737C219.599 22.6466 221.135 25.0574 222.539 27.4697C223.63 29.3463 224.19 32.6662 226.184 33.6536C226.548 33.8331 226.933 33.6764 227.067 33.2945C227.142 33.0794 227.164 32.8557 227.184 32.6305C227.691 33.4541 229.337 33.4855 229.495 32.3342C230.196 27.2588 231.636 22.4756 232.731 17.4914C232.882 16.799 231.977 16.4071 231.591 17.0113Z"
        fill="#373463" />
</svg>
    