<svg width="395" height="313" viewBox="0 0 395 313" fill="none" xmlns="http://www.w3.org/2000/svg">
    <g filter="url(#filter0_dd_2205_1290)">
        <path
            d="M68.3967 260.591C68.6377 261.087 68.9339 261.57 69.2782 262.047C74.2503 269.042 77.4939 277.041 80.5412 285.007C81.7808 288.248 82.9619 291.505 84.0879 294.783C84.7318 296.67 87.2247 301.127 85.4273 302.941C84.7972 303.574 83.8124 303.729 82.9757 303.868C80.71 304.239 80.1211 304.159 78.3754 302.534C76.9361 301.195 75.6793 299.666 74.4259 298.151C68.2108 290.631 61.6513 283.272 55.6772 275.587C52.9501 272.082 49.6549 267.905 48.4497 263.564C47.2308 259.176 47.8712 254.119 48.5461 249.687C49.2589 244.983 50.6328 240.417 51.8964 235.841C52.592 233.331 53.291 230.811 54.1828 228.359C54.9369 226.296 56.1042 224.458 56.8858 222.447C58.0668 219.403 59.9021 216.552 62.4811 214.545C65.0602 212.534 68.4208 211.424 71.6507 211.927C74.8839 212.426 77.8796 214.671 78.916 217.77C79.3464 219.055 79.4428 220.429 79.4153 221.778C79.2913 228.586 76.2784 234.956 73.3206 241.089C71.902 244.032 70.4248 246.956 69.0613 249.925C68.0421 252.148 67.8183 255.13 67.7425 257.565C67.7081 258.69 67.9525 259.665 68.3967 260.591Z"
            fill="#FCB285" />
        <path
            d="M88.082 307.461L87.9891 308.082H62.3985L62.1643 307.317L62.1678 307.2C62.2228 306.58 62.6154 306.02 63.1181 305.605C63.6208 305.192 64.2234 304.91 64.826 304.638C65.5594 304.305 66.2997 303.984 67.0366 303.66C68.5551 302.996 70.0736 302.332 71.537 301.568C72.5975 301.016 73.6339 300.41 74.6084 299.725C75.1697 299.325 75.8721 298.712 76.5297 299.118C76.881 299.339 76.9705 299.769 77.277 299.986C77.7211 300.303 78.4821 300.272 78.9883 300.255C80.307 300.204 81.6086 299.893 82.8585 299.466C83.8915 299.116 85.0519 298.699 86.0023 299.235C87.2177 299.921 87.5621 301.76 87.7583 303.04C87.9821 304.504 88.0579 305.98 88.082 307.461Z"
            fill="#A4AEA4" />
        <path
            d="M75.9066 299.952C74.2435 300.815 72.5769 301.676 70.9104 302.541C70.5075 302.751 70.1046 302.958 69.7017 303.168L69.0579 303.502L68.593 303.788L68.6894 304.662C68.9029 305.089 69.1233 305.517 69.3436 305.947L69.6914 305.898C69.4883 305.495 69.2851 305.093 69.0785 304.689L68.865 304.17L69.1508 303.722C69.929 303.316 70.7106 302.912 71.4888 302.51C73.0452 301.705 74.6085 300.899 76.1648 300.089L75.9066 299.952Z"
            fill="#000100" />
        <path
            d="M69.8634 304.312L69.5501 304.122C69.2712 303.612 68.9269 303.14 68.5309 302.727V302.19L69.0439 302.193C69.4847 302.652 69.8669 303.179 70.1768 303.747L70.0425 304.259L69.8634 304.312Z"
            fill="#FF5C3D" />
        <path
            d="M71.5541 303.303L71.2408 303.109C70.9619 302.603 70.6175 302.131 70.2216 301.716L70.225 301.182H70.7346C71.1753 301.643 71.5576 302.169 71.8709 302.734L71.7366 303.25L71.5541 303.303Z"
            fill="#FF5C3D" />
        <path
            d="M73.4894 302.294L73.1726 302.1C72.8937 301.59 72.5528 301.122 72.1569 300.707V300.173H72.6699C73.1107 300.634 73.4929 301.157 73.8028 301.725L73.6685 302.241L73.4894 302.294Z"
            fill="#FF5C3D" />
        <path
            d="M62.2883 307.424H88.0648L88.0821 308.185L87.9856 308.801H62.3985C62.2263 308.563 62.1402 308.26 62.1678 307.923L62.2883 307.424Z"
            fill="#000100" />
        <path
            d="M90.0585 186.867C89.6522 183.558 87.3211 181.472 85.169 179.117C84.2393 178.108 83.2545 177.053 81.9529 176.613C80.9475 176.272 79.856 176.338 78.7989 176.413C74.3777 176.737 69.7499 177.326 66.1448 179.909C63.2008 182.012 60.9351 185.648 60.7112 189.312C60.4461 193.629 59.3236 197.962 58.3974 202.218C56.445 211.215 54.2172 220.15 51.7242 229.013C51.6072 229.426 52.0926 229.594 52.4266 229.64C62.1953 231.048 72.019 232.022 81.8703 232.583C82.2422 232.605 82.7759 232.477 82.8758 232.071C85.868 220.132 88.8774 208.113 89.845 195.806C90.0757 192.883 90.389 189.797 90.0585 186.867Z"
            fill="#4490E2" />
        <path
            d="M19.0061 260.637C18.7823 258.467 18.5551 256.295 18.2762 254.101C17.9525 251.557 17.4463 249.246 17.8148 246.654C18.1763 244.102 19.0371 241.65 19.9324 239.24C21.9295 233.858 23.9301 228.473 25.9306 223.091C26.9533 220.337 27.9828 217.565 29.429 215.003C30.9854 212.248 32.0769 210.405 35.3825 210.23C38.0579 210.085 40.7506 210.279 43.3778 210.784C45.0547 211.104 46.7385 211.559 48.1502 212.52C52.1307 215.212 52.3924 221.07 50.7912 225.18C50.2988 226.451 49.6033 227.626 48.9112 228.796C46.5456 232.797 44.1767 236.801 41.8111 240.807C40.6232 242.807 39.4421 244.811 38.2576 246.811C37.2935 248.44 35.8576 250.124 35.5099 252.004C35.0829 254.331 35.9747 257.372 36.109 259.745C36.746 270.846 35.107 282.208 33.6298 293.2C33.2993 295.641 32.9446 298.096 32.2215 300.458C31.5535 302.652 30.8098 303.484 28.4821 303.868C24.5981 304.508 22.8867 302.287 22.7352 298.657C22.5596 294.525 22.3151 290.397 22.0052 286.272C21.6127 280.703 20.8793 275.16 20.0667 269.645C19.6225 266.632 19.316 263.639 19.0061 260.637Z"
            fill="#FCB285" />
        <path
            d="M34.3424 307.461L34.246 308.082H8.65539L8.42126 307.317L8.42816 307.2C8.48325 306.58 8.87234 306.02 9.37507 305.605C9.87779 305.192 10.4804 304.91 11.0829 304.638C11.8164 304.305 12.5566 303.984 13.2969 303.66C14.812 302.996 16.3305 302.332 17.7939 301.568C18.8579 301.016 19.8909 300.41 20.8654 299.725C21.4266 299.325 22.129 298.712 22.7867 299.118C23.1414 299.339 23.2275 299.769 23.5374 299.986C23.9781 300.303 24.7425 300.272 25.2487 300.255C26.564 300.204 27.8656 299.893 29.1189 299.466C30.1485 299.116 31.3089 298.699 32.2592 299.235C33.4747 299.921 33.8225 301.76 34.0153 303.04C34.2426 304.504 34.3149 305.98 34.3424 307.461Z"
            fill="#A4AEA4" />
        <path
            d="M22.167 299.952C20.5004 300.815 18.8339 301.676 17.1674 302.541C16.7645 302.751 16.3616 302.958 15.9587 303.168L15.3149 303.502L14.85 303.788L14.9464 304.662C15.1633 305.089 15.3837 305.517 15.6006 305.947L15.9484 305.898C15.7453 305.495 15.5421 305.093 15.3355 304.689L15.122 304.17L15.4112 303.722C16.186 303.316 16.9676 302.912 17.7458 302.51C19.3056 301.705 20.8654 300.899 22.4218 300.089L22.167 299.952Z"
            fill="#000100" />
        <path
            d="M16.1238 304.312L15.807 304.122C15.5281 303.612 15.1873 303.14 14.7878 302.727L14.7913 302.19L15.3009 302.193C15.7451 302.652 16.1273 303.179 16.4372 303.747L16.3029 304.259L16.1238 304.312Z"
            fill="#FF5C3D" />
        <path
            d="M17.8147 303.303L17.4979 303.109C17.2189 302.603 16.878 302.131 16.4821 301.716V301.182H16.9951C17.4359 301.643 17.8181 302.169 18.128 302.734L17.9937 303.25L17.8147 303.303Z"
            fill="#FF5C3D" />
        <path
            d="M19.7464 302.294L19.433 302.1C19.1541 301.59 18.8098 301.122 18.4138 300.707V300.173H18.9269C19.3711 300.634 19.7498 301.157 20.0631 301.725L19.9254 302.241L19.7464 302.294Z"
            fill="#FF5C3D" />
        <path
            d="M8.54516 307.424H34.3217L34.3389 308.185L34.246 308.801H8.65533C8.48317 308.563 8.39711 308.26 8.4281 307.923L8.54516 307.424Z"
            fill="#000100" />
        <path
            d="M34.7452 198.657C31.8529 202.469 29.2945 206.518 26.7396 210.557C26.5261 210.89 26.3092 211.256 26.3436 211.652C26.3815 212.034 26.6466 212.347 26.9048 212.63C33.2543 219.63 40.6781 225.546 48.8387 230.298L49.1279 230.387L49.3862 230.204C54.1792 224.867 58.8484 219.304 62.4019 213.057C65.7281 207.21 67.5806 200.527 67.739 193.802C67.7837 191.97 67.6942 190.082 66.9608 188.403C66.3066 186.897 65.184 185.655 64.0546 184.467C62.9355 183.29 61.7821 182.13 60.4185 181.258C56.6825 178.861 51.4453 179.141 47.7058 181.437C46.4353 182.216 45.6812 183.372 44.9271 184.622C43.5911 186.84 42.262 189.012 40.7022 191.085C38.7705 193.651 36.6873 196.099 34.7452 198.657Z"
            fill="#4490E2" />
        <path
            d="M94.9583 113.394C94.5692 111.934 93.6464 110.712 92.6685 109.534L92.6375 109.383C92.5032 108.646 90.513 108.739 90.6266 109.383L90.6335 109.407L90.7093 109.782C91.9902 116.424 95.251 122.461 96.7798 129.041C96.9348 129.712 98.7838 129.781 98.7872 129.041C98.8286 123.58 97.5098 118.208 94.9583 113.394Z"
            fill="#FFB24E" />
        <path
            d="M115.005 51.0352C114.905 50.6816 114.313 50.6289 114.027 50.6131C112.526 50.527 111.025 50.5026 109.523 50.5404C109.124 50.0966 107.626 50.1651 107.612 50.7877C107.437 59.0247 104.751 66.8544 101.628 74.3877C100.543 77.0094 99.5206 79.6429 98.3912 82.2281C95.9016 87.9243 95.5194 94.3213 92.9301 100.044C90.3373 105.774 86.6082 110.929 84.2702 116.782C82.9824 120.011 81.2298 124.651 83.6435 127.745C84.9967 129.48 88.5502 132.442 90.9158 130.961C95.5298 131.028 97.5544 124.699 99.0867 121.086C101.373 115.707 103.484 110.257 105.426 104.748L105.598 104.545C108.862 96.098 112.385 87.748 113.962 78.7889C115.542 69.8053 115.67 60.6537 115.79 51.56C115.797 51.256 115.429 51.081 115.005 51.0352Z"
            fill="#FDB082" />
        <path
            d="M107.137 51.105L107.182 51.1697C107.499 51.6728 107.85 52.1514 108.277 52.5508C109.675 53.8421 111.827 54.0656 113.607 53.2974C116.827 51.9107 117.068 48.5225 119.213 46.1257C120.015 45.2338 121.038 44.5872 121.857 43.7088C122.177 43.3645 122.463 42.9823 122.753 42.6073C122.969 42.3181 123.19 42.0181 123.266 41.6669C123.369 41.1532 123.083 40.751 122.601 40.7441C122.264 40.7403 121.943 40.9084 121.64 41.0778C120.304 41.7664 119.192 42.7929 117.925 43.5876L117.832 43.1747C118.397 40.919 120.174 39.1085 120.711 36.8463C120.996 35.637 120.053 34.7184 119.089 35.7758C118.765 36.1294 118.572 36.588 118.373 37.0319C117.539 38.884 116.503 40.8061 115.122 42.2654C114.964 41.921 115.108 41.5041 115.181 41.1439C115.577 39.1182 116.293 37.1665 116.685 35.1422C116.792 34.5734 116.94 33.5821 116.503 33.1382C116.138 32.7656 115.329 32.9753 114.981 33.3479L114.537 34.1051C113.652 36.2506 113.514 38.6392 112.643 40.7848L112.347 41.1773C111.875 41.3739 111.83 39.769 111.827 39.4801C111.813 38.0515 111.799 36.6256 111.782 35.1959C111.779 34.8113 111.775 34.4184 111.638 34.0676C111.5 33.7232 111.197 33.4233 110.835 33.4206C110.487 33.4164 110.171 33.6816 109.995 34.0056C109.826 34.3323 109.775 34.7035 109.747 35.0696C109.675 36.003 109.82 36.9351 109.74 37.8617C109.661 38.7536 109.534 39.6657 109.434 40.5613C109.344 41.9321 108.718 42.8063 108.139 43.9629L107.964 44.1874L107.513 43.998C106.411 42.7175 105.966 41.0227 104.82 39.8L104.162 39.2769L103.36 39.3589C102.657 39.9346 103.164 41.4221 103.436 42.0488C103.945 43.2257 104.572 44.3382 104.961 45.5716C105.577 47.5233 106.053 49.362 107.137 51.105Z"
            fill="#FDB082" />
        <path
            d="M76.1715 122.203C75.3417 123.022 74.4533 123.841 73.7922 124.746C73.107 125.691 72.8384 126.971 72.6834 128.132C72.0361 132.908 73.8714 137.72 76.5089 141.753C77.2906 142.949 78.1789 144.126 79.4116 144.849C80.4756 145.472 81.7152 145.706 82.9307 145.929C84.0222 146.13 85.1585 146.333 86.2363 146.061C87.803 145.664 88.9461 144.364 89.9413 143.096C92.7785 139.47 95.237 135.566 97.6611 131.65C98.6907 129.995 98.7458 128.909 97.7093 127.313C94.1386 121.792 92.1622 115.511 89.8758 109.39C89.5418 108.501 89.2767 107.448 88.1576 108.108C87.0799 108.746 86.4291 110.292 85.7129 111.27C84.8555 112.436 83.9223 113.546 82.9823 114.641C81.0024 116.944 78.9847 119.21 76.9221 121.437L76.1715 122.203Z"
            fill="#244123" />
        <path
            d="M110.87 47.0112C110.36 46.3776 109.744 45.8435 109.059 45.3997L108.615 45.6297C109.248 46.036 109.837 46.5498 110.302 47.1417C110.736 47.6998 111.066 48.3534 111.083 49.0703H111.71C111.696 48.3024 111.338 47.6027 110.87 47.0112Z"
            fill="#ED7D6B" />
        <path
            d="M115.384 52.3411L114.998 52.4513C114.43 53.171 113.483 53.5838 112.567 53.4361L112.182 53.5532L112.402 53.7453C113.594 53.9392 114.854 53.4871 115.604 52.5374L115.384 52.3411Z"
            fill="#ED7D6B" />
        <path
            d="M100.323 92.7852L99.8924 92.8445C99.2623 93.3651 98.5667 93.7845 97.8126 94.1047V94.332H98.2568C99.0419 93.9987 99.7787 93.5507 100.433 93.006L100.323 92.7852Z"
            fill="#ED7D6B" />
        <path
            d="M49.9408 91.3055C48.0987 90.3063 45.8399 90.3989 43.8324 90.9991C38.3507 92.6305 34.2807 98.1611 34.3495 103.88C34.3874 107.406 35.7648 111.231 33.9777 114.265C32.8827 116.124 30.8512 117.182 29.2845 118.658C26.3852 121.389 25.1491 125.759 26.1889 129.606C27.0876 132.91 29.1536 135.521 28.6819 139.133C28.4133 141.192 27.5525 143.203 26.8294 145.134C26.1993 146.818 26.0099 148.449 26.0753 150.265C26.2096 153.877 27.4182 157.53 29.9559 160.174C33.1203 163.469 37.9065 164.805 42.4723 164.734C41.2568 162.975 40.272 160.867 40.6405 158.759C40.9676 156.866 42.3656 155.289 44.0046 154.272C45.6401 153.257 47.5168 152.709 49.3589 152.138C53.212 150.939 57.585 148.636 58.828 144.445C59.6682 141.616 58.6868 138.561 59.0793 135.638C59.4822 132.625 61.2934 130.014 62.5261 127.233C64.5645 122.625 65.0122 117.333 63.7795 112.447C62.5502 107.56 59.6406 103.115 55.6601 100.027C54.152 98.8567 53.026 97.782 52.6266 95.8947C52.2203 93.9768 51.8243 92.3209 49.9408 91.3055Z"
            fill="#AF565C" />
        <path
            d="M90.2719 185.772C89.9964 186.805 88.9256 187.387 87.9477 187.818C81.185 190.771 73.7475 192.266 66.3823 191.829C59.0171 191.391 51.7345 188.988 45.7328 184.699L45.0958 184.026C44.965 183.717 45.0166 183.372 45.0717 183.041C45.5675 180.128 46.3285 177.298 46.4559 174.358C46.5971 171.173 46.4525 167.984 46.1977 164.81L46.1736 164.516C46.1047 163.68 46.0255 162.847 45.9429 162.013C45.7604 160.137 45.5503 158.263 45.3472 156.391C45.2577 155.557 45.1716 154.724 45.0855 153.888C44.8204 151.266 44.6 148.633 44.5104 145.993C44.4209 143.337 44.5896 140.675 44.8686 138.034C45.0097 136.709 45.1785 135.387 45.3541 134.067C45.4677 133.252 45.1957 131.953 45.633 131.244C46.449 129.922 48.3222 129.523 49.7236 129.284C50.8771 129.089 52.0237 128.865 53.1738 128.613C58.0874 127.567 62.9356 126.154 67.856 125.232C69.6293 124.898 71.413 124.629 73.2069 124.468C73.7337 124.419 74.2571 124.382 74.7839 124.351C76.8086 124.241 77.9724 124.73 79.7113 125.58C81.3847 126.396 82.9962 126.806 84.4527 128.094C87.5827 130.858 88.5227 134.928 89.0358 138.888C89.5041 142.448 89.7038 146.033 89.7795 149.624C89.8002 150.465 89.8105 151.301 89.8174 152.142C89.8346 154.407 89.8139 156.676 89.7933 158.938C89.7864 159.79 89.7795 160.636 89.7726 161.483C89.752 164.403 89.752 167.319 89.8449 170.222C89.9413 173.06 90.2099 175.887 90.327 178.72C90.4096 180.801 90.8125 183.741 90.2719 185.772Z"
            fill="#244123" />
        <path
            d="M57.1163 208.429C55.8974 213.316 54.6096 218.188 53.253 223.036C52.8742 224.396 52.492 225.749 52.1029 227.106L52.8294 227.206C54.2205 222.372 55.5428 217.516 56.7996 212.647C57.1646 211.243 57.5192 209.835 57.8704 208.429H57.1163Z"
            fill="#000100" />
        <path
            d="M16.7643 126.28C16.6094 124.564 16.451 122.852 16.3683 121.148C16.1927 117.577 16.358 113.99 16.8539 110.45C17.2911 107.341 18.2759 103.839 17.0811 100.768C15.7382 97.3031 10.1394 96.2391 8.96869 100.334C7.36067 105.933 5.93858 111.579 4.70243 117.271C3.51794 122.722 3.09444 128.279 3.00491 133.871C2.95326 137.042 3.27692 140.561 5.52883 143.006C7.18506 144.803 10.0086 146.039 12.4671 145.39C14.6433 144.814 15.8622 141.891 16.389 139.921C17.5666 135.493 17.1775 130.886 16.7643 126.28Z"
            fill="#FDB082" />
        <path
            d="M24.1433 133.537C27.8896 133.606 31.6222 133.083 35.3272 132.508C37.1418 132.226 39.0735 131.943 40.7607 132.67C42.3343 133.348 43.4396 134.811 44.204 136.351C44.9098 137.769 45.3885 139.333 45.361 140.916C45.3127 144.185 42.9093 145.971 40.2855 147.431C37.5618 148.95 34.3562 149.436 31.2813 149.573C23.6268 149.928 15.8932 148.467 8.89296 145.355C7.8462 144.889 6.78223 144.363 6.06258 143.472C3.6626 140.503 5.0468 135.813 7.9495 133.813C9.41979 132.794 11.1586 132.226 12.9113 131.864C13.7893 131.681 14.8705 131.482 15.7348 131.829C16.513 132.143 17.1018 132.549 17.9695 132.759C19.9907 133.248 22.0636 133.496 24.1433 133.537Z"
            fill="#FDB082" />
        <path
            d="M34.9379 151.711C37.851 151.553 40.7709 151.577 43.6736 151.299C45.9634 151.078 48.9177 151.025 50.4293 149.049C53.7418 144.704 53.5145 138.799 52.3403 133.758C52.0786 132.639 52.2852 130.875 51.4382 129.97C50.5843 129.061 48.8041 129.447 47.7435 129.657C44.8305 130.242 41.914 130.827 39.001 131.409C37.541 131.703 36.088 131.994 34.628 132.288C33.5985 132.491 32.2831 132.253 32.3382 133.513C32.3727 134.277 32.5861 135.011 32.624 135.771C32.7032 137.514 32.81 139.256 32.9546 140.996C33.1026 142.817 33.2851 144.642 33.5055 146.456C33.6295 147.5 33.6949 148.547 33.8602 149.58C33.9428 150.079 34.0427 150.575 34.1907 151.06C34.3457 151.573 34.3801 151.738 34.9379 151.711Z"
            fill="#244123" />
        <path
            d="M19.8322 90.5754L20.2282 90.4235L20.4623 89.9903C21.1682 88.1451 22.456 86.3129 23.7059 84.7837C24.2052 84.1677 25.5928 83.4171 25.8717 84.6426C25.9819 85.1174 25.796 85.6029 25.6066 86.0547C24.9627 87.5694 24.2189 89.0393 23.3788 90.4518C22.9105 91.2358 22.363 91.973 21.905 92.7584C21.6537 93.193 21.0305 93.9594 20.9547 94.4384L22.1771 93.9567C22.6488 93.7497 23.1033 93.54 23.6129 93.4605C23.9228 93.412 24.2396 93.4054 24.5495 93.4471C25.6032 93.5776 26.1265 94.4384 25.2795 95.2507C24.4565 96.043 23.3134 96.6118 22.4078 97.3277C21.3197 98.1857 20.3039 99.1392 19.3846 100.175C18.3447 101.343 17.3255 102.437 15.6761 101.894C14.9393 101.649 14.1748 101.504 13.4035 101.463C12.3947 101.411 11.4271 101.587 10.6145 100.892C9.98092 100.347 9.68823 99.4797 9.52984 98.6874C9.1132 96.6011 9.29224 94.3981 10.036 92.4034C10.4423 91.3126 11.4306 89.4522 12.7734 89.4081C13.3003 89.3905 13.8477 89.7104 13.9854 90.2176C13.858 89.7455 14.6913 89.1939 14.9909 88.9884C15.4454 88.6681 15.862 88.6334 16.3544 88.9749C16.8124 89.291 17.1464 89.7831 17.2669 90.324C17.7077 88.4367 17.7352 86.3642 17.9418 84.4287C18.0004 83.9188 18.052 83.4064 18.1863 82.9075C18.4032 82.0976 18.8991 81.2099 19.9045 81.5677L20.2626 81.8153L20.4038 82.1327C20.5071 82.4636 20.5071 82.6761 20.5071 83.0135C20.4313 85.5691 20.2179 88.048 19.8322 90.5754Z"
            fill="#FDB082" />
        <path
            d="M16.6061 90.5753C16.5234 91.3301 16.4408 92.0966 16.2376 92.8338C16.1447 93.1754 16.0207 93.5128 15.8623 93.8358C15.7315 94.0982 15.5214 94.5768 15.2012 94.6481C14.8224 94.7424 14.5607 94.1949 14.4643 93.9126C14.33 93.5331 14.2612 93.1268 14.2164 92.7274C14.1269 91.9082 14.1613 91.0811 14.1992 90.2579H13.6999C13.662 91.0233 13.631 91.7939 13.6999 92.558L13.7654 93.1647L13.6551 93.2707C13.662 93.8733 13.5002 94.4759 13.1559 94.9724L12.5085 95.4714L11.9404 95.1446C11.5754 94.6939 11.448 94.0672 11.386 93.5063C11.3137 92.8648 11.3412 92.2178 11.3722 91.5736H10.8695C10.8351 92.3631 10.7972 93.1647 10.9487 93.9432C11.0658 94.5458 11.2862 95.2238 11.8405 95.564C12.4052 95.9018 13.0905 95.6986 13.5002 95.2197C13.7619 94.9173 13.9375 94.5486 14.0442 94.1598L14.2956 94.5485C14.6985 94.9924 15.4181 95.0475 15.8589 94.6281C16.3237 94.1843 16.5682 93.4674 16.7335 92.8648C16.9366 92.1141 17.0261 91.3435 17.1088 90.5753H16.6061Z"
            fill="#ED7D6B" />
        <path
            d="M20.435 95.0033C19.6362 94.9896 18.8235 95.014 18.0522 95.2306C17.6907 95.3301 17.3429 95.4778 17.0296 95.681C16.6474 95.9299 16.3444 96.2608 16.0448 96.601L16.4787 96.7288C16.7403 96.4316 17.0055 96.1289 17.3326 95.9017C17.6287 95.692 17.9593 95.5481 18.3036 95.451C18.9957 95.2547 19.7222 95.244 20.435 95.2588L20.6864 95.1311L20.435 95.0033Z"
            fill="#ED7D6B" />
        <path
            d="M16.0277 101.883L15.7178 101.793L15.618 101.804H15.6111L15.5629 101.808H15.4596L15.4424 101.804L15.4045 101.801L15.036 101.722L14.4025 101.316L14.0616 101.27L13.9686 101.446C14.4541 101.932 15.1772 102.134 15.8521 102.042L16.0277 101.883Z"
            fill="#ED7D6B" />
        <path
            d="M17.4359 132.687H16.8092C16.9056 134.553 16.0862 136.398 14.6296 137.572L14.7433 137.793L15.1737 137.738C16.6715 136.523 17.5357 134.615 17.4359 132.687Z"
            fill="#ED7D6B" />
        <path
            d="M70.0632 130.966C68.1522 132.453 65.7212 133.455 63.3178 133.699C61.2139 133.917 58.8277 133.606 56.8961 132.705C55.4154 132.016 53.5457 130.997 53.2186 129.244L53.1738 128.613C58.0874 127.567 62.9356 126.154 67.8561 125.232C69.6294 124.898 71.413 124.629 73.207 124.468L73.4445 125.176C73.7648 127.333 71.623 129.75 70.0632 130.966Z"
            fill="#FDB082" />
        <path
            d="M71.7744 126.523C71.585 127.604 70.8723 128.579 70.039 129.275C69.0542 130.101 67.8353 130.621 66.6026 131.021C64.4023 131.74 62.0574 132.133 59.7332 131.977C57.953 131.86 55.436 131.561 55.3843 129.233V129.116C55.405 128.514 55.6701 127.891 55.6735 127.257C55.677 126.723 55.6288 126.193 55.5496 125.662L55.4463 125.032C55.3258 124.377 55.1777 123.713 55.2569 123.049C55.467 121.338 56.7478 121.472 58.1045 121.355C59.3579 121.245 60.6147 121.135 61.8646 121.024C62.7702 120.945 63.6654 120.866 64.5676 120.786L64.6881 120.777C65.5937 120.698 66.4993 120.622 67.4048 120.691L67.4737 120.693C68.0625 120.739 68.6444 120.845 69.2091 121.007L69.4915 121.086C70.0562 121.265 70.3627 121.6 70.5796 122.022L70.9101 122.863L70.9274 122.905C71.3061 123.999 71.9741 125.363 71.7744 126.523Z"
            fill="#FDB082" />
        <path
            d="M68.2348 127.701C66.6612 128.538 64.5401 128.975 62.753 128.957C60.749 128.937 59.1996 128.713 57.5193 127.573C56.9098 127.16 56.4277 126.754 56.1006 126.076C55.6702 125.174 55.2054 123.594 55.8527 122.729C56.414 121.978 57.5055 121.934 58.356 121.861C59.6094 121.748 60.8627 121.638 62.1195 121.528C63.0182 121.444 63.9203 121.365 64.819 121.289L64.9396 121.279C65.6282 121.3 66.31 121.314 66.9745 121.238L67.7252 121.193C68.3243 121.197 68.9235 121.296 69.4606 121.506C69.9565 121.702 70.3972 121.995 70.7381 122.406L70.8276 122.525L71.165 123.366C71.3957 125.032 69.4985 127.033 68.2348 127.701Z"
            fill="#ED7D6B" />
        <path
            d="M73.8336 108.86C73.8956 109.799 73.9403 110.715 74.1228 111.679C74.4052 113.156 74.7254 114.65 74.6669 116.166C74.5774 118.38 73.8199 120.57 72.4735 122.329C70.5177 124.888 67.9146 126.999 64.6193 127.35C64.0512 127.412 63.4796 127.421 62.908 127.415C60.8834 127.384 59.0274 127.026 57.1198 126.424C56.0076 126.072 55.0435 125.411 54.1655 124.64C50.9322 121.792 48.7905 117.802 47.8884 113.586C47.4614 111.604 47.2995 109.565 47.365 107.538C47.4269 105.667 47.4855 103.26 48.212 101.512C49.3311 98.8152 53.4217 96.9806 56.0283 96.1666C58.9104 95.2655 62.0369 95.0072 65.0291 94.8554C67.4635 94.7342 69.8738 97.7929 70.9929 99.6409C72.4701 102.076 73.3997 104.845 73.7303 107.671C73.7751 108.074 73.8061 108.47 73.8336 108.86Z"
            fill="#FDB082" />
        <path
            d="M65.3286 98.164C62.5498 98.1575 59.7676 98.674 57.1852 99.696C55.2879 100.451 53.4595 101.497 52.1373 103.051C50.8013 104.62 50.0541 106.622 49.6891 108.646C49.3861 110.333 49.3241 112.058 49.3172 113.769C49.3103 115.043 49.269 116.325 48.3669 117.343C47.8159 117.974 47.1686 117.217 46.6555 116.8C44.1144 114.734 42.8266 111.714 42.6544 108.47C42.193 99.8523 48.8627 92.6104 57.3573 92.0078C60.9108 91.7495 64.5435 92.2729 67.6562 94.0913C68.8097 94.7624 71.1925 96.5392 70.8068 98.1709C70.6106 99.0114 69.161 98.6051 68.5584 98.519C67.4841 98.3741 66.4167 98.164 65.3286 98.164Z"
            fill="#AF565C" />
        <path
            d="M49.0006 113.711C48.0537 113.767 47.1412 114.372 46.7865 115.253C46.5799 115.773 46.5662 116.358 46.642 116.916C46.9036 118.837 48.2568 120.567 50.0542 121.283C50.6878 121.534 51.3937 121.664 52.0548 121.492C52.7159 121.32 53.3116 120.797 53.4218 120.126C53.4803 119.775 53.408 119.42 53.3254 119.075C52.8158 116.965 51.7518 113.559 49.0006 113.711Z"
            fill="#FDB082" />
        <path
            d="M57.8119 113.295C57.9256 114.038 57.4676 114.727 56.7893 114.837C56.1041 114.944 55.4567 114.427 55.3397 113.687C55.226 112.944 55.6805 112.251 56.3623 112.145C57.0441 112.037 57.6914 112.551 57.8119 113.295Z"
            fill="#000100" />
        <path
            d="M69.8773 110.079C70.1493 110.781 69.8498 111.549 69.2059 111.803C68.562 112.052 67.8217 111.686 67.5462 110.984C67.2742 110.282 67.5737 109.514 68.2176 109.259C68.8615 109.01 69.6019 109.379 69.8773 110.079Z"
            fill="#000100" />
        <path
            d="M65.2702 113.171C64.8708 112.829 64.554 112.406 64.3371 111.931L63.9032 112.061C64.0891 112.471 64.3439 112.851 64.6642 113.167L65.191 113.601L65.6696 114.045C65.8865 114.441 65.6455 114.937 65.3976 115.257C65.1221 115.605 64.7468 115.864 64.3749 116.107L64.3439 116.279L64.6504 116.235C65.3218 115.798 66.3066 115.085 66.1827 114.158C66.1172 113.672 65.6042 113.456 65.2702 113.171Z"
            fill="#ED7D6B" />
        <path
            d="M69.0405 105.777C67.9145 105.595 66.6715 105.64 65.7143 106.328L65.4939 106.531C65.1702 107.003 65.6971 107.306 66.093 107.333C66.5475 107.364 66.9951 107.234 67.4428 107.203C68.8683 107.096 70.3042 107.31 71.6436 107.802L71.9914 107.613C71.4852 106.48 70.194 105.96 69.0405 105.777Z"
            fill="#AF565C" />
        <path
            d="M54.4066 108.67C55.4361 108.026 56.6757 107.54 57.9257 107.757L58.2321 107.85C58.7589 108.143 58.3767 108.639 57.998 108.832C57.5676 109.052 57.0717 109.121 56.6137 109.282C55.1676 109.792 53.8522 110.591 52.7504 111.604L52.3269 111.584C52.3165 110.34 53.3564 109.324 54.4066 108.67Z"
            fill="#AF565C" />
        <path
            d="M67.8766 120.188C67.2052 120.852 66.279 121.303 65.3871 121.51C63.9892 121.837 62.4569 121.568 61.2517 120.784C60.7697 120.466 60.081 119.706 60.7421 119.206L61.5203 118.923C63.5656 118.521 65.611 118.122 67.6563 117.715L68.7547 117.698L68.8235 118.473C68.6927 119.141 68.3587 119.715 67.8766 120.188Z"
            fill="white" />
        <path
            d="M50.781 93.6744C47.6476 94.8513 45.523 97.793 44.1423 100.72C42.6651 103.852 42.0557 107.428 42.9509 110.816C43.4226 112.608 44.3007 114.268 45.5644 115.632L46.1084 115.471C43.8944 113.092 42.9543 109.752 43.185 106.542C43.4261 103.179 44.8654 99.8617 46.9348 97.2145C48.0332 95.82 49.414 94.5838 51.0977 93.9502C51.4799 93.8091 51.0048 93.5911 50.781 93.6744Z"
            fill="#000100" />
        <path
            d="M63.1731 97.8857C62.6566 95.3273 60.4322 93.3233 57.8566 92.9924L57.4709 93.1026L57.6913 93.2989C60.0569 93.6057 62.0746 95.5546 62.5464 97.8857H63.1731Z"
            fill="#000100" />
        <path
            d="M63.087 94.9859L62.6566 94.928L62.5464 95.1484C63.3039 95.6921 63.817 96.5391 63.9409 97.4688L64.2543 97.6234L64.5676 97.4688C64.4368 96.4775 63.8962 95.5681 63.087 94.9859Z"
            fill="#000100" />
        <path
            d="M49.6582 104.483C48.2603 103.351 47.6198 101.446 48.0123 99.6935H47.3856C46.9793 101.504 47.6783 103.474 49.1176 104.645L49.548 104.7L49.6582 104.483Z"
            fill="#000100" />
        <path
            d="M47.637 111.138C46.7383 110.708 46.0944 109.816 45.9567 108.832L45.6399 108.673L45.3265 108.832C45.4849 109.926 46.1977 110.887 47.1928 111.366H47.637V111.138Z"
            fill="#000100" />
        <path
            d="M32.638 119.682L32.0974 119.519C30.8681 120.7 29.9384 122.174 29.4254 123.799C28.9123 125.428 28.6541 127.421 29.5321 128.968C29.9591 129.725 30.634 130.308 31.4604 130.569C31.6842 130.642 32.1697 130.418 31.7806 130.294C29.5872 129.598 29.3944 126.86 29.7559 124.967C30.1416 122.963 31.1677 121.097 32.638 119.682Z"
            fill="#000100" />
        <path
            d="M33.2887 129.409C32.6379 128.995 32.2867 128.228 32.1868 127.485C32.0594 126.53 32.297 125.573 32.5208 124.651H31.8941C31.6531 125.638 31.3948 126.682 31.5945 127.701C31.7529 128.489 32.1558 129.195 32.8445 129.633L33.2887 129.409Z"
            fill="#000100" />
        <path
            d="M41.3081 94.3671C39.0838 95.6987 37.6789 98.1992 37.7615 100.795H38.3882C38.3125 98.3187 39.614 95.8708 41.7523 94.593L41.3081 94.3671Z"
            fill="#000100" />
        <path
            d="M42.6132 123.018C42.1553 122.243 41.6284 121.521 41.1567 120.755C40.685 119.996 40.289 119.162 40.3923 118.243H39.7657C39.5694 119.967 40.9949 121.441 41.8316 122.812C42.7475 124.309 43.7254 126.234 43.2192 128.039L43.8253 128.125C44.3177 126.362 43.4913 124.512 42.6132 123.018Z"
            fill="#000100" />
        <path
            d="M34.6179 158.883C33.3748 158.819 32.3109 157.885 31.7462 156.831C31.0851 155.592 30.9989 154.146 31.1229 152.771H30.4928C30.3585 154.29 30.4859 155.93 31.3329 157.241C32.0698 158.374 33.2612 159.135 34.6179 159.203L34.9312 159.042L34.6179 158.883Z"
            fill="#000100" />
        <path
            d="M89.8176 152.142L52.5163 155.691C51.683 155.771 50.8222 155.867 49.9958 155.956C48.4739 156.126 46.9072 156.301 45.3474 156.391C45.2579 155.557 45.1718 154.724 45.0857 153.888C46.6214 153.804 48.1915 153.632 49.7169 153.46C50.5536 153.367 51.4248 153.274 52.2788 153.188L89.7797 149.624C89.8004 150.465 89.8107 151.301 89.8176 152.142Z"
            fill="#FF5C3D" />
        <path
            d="M50.5296 161.865C49.018 161.909 47.4823 161.958 45.9431 162.013C46.0258 162.847 46.105 163.68 46.1738 164.516C47.6648 164.469 49.1454 164.421 50.6088 164.375C63.5246 163.966 76.7916 163.545 89.7729 161.483C89.7798 160.636 89.7866 159.79 89.7935 158.938C76.8261 161.035 63.5005 161.456 50.5296 161.865Z"
            fill="#FF5C3D" />
        <path
            d="M65.2804 182.381C60.756 178.049 57.354 172.581 55.4292 166.624C55.3259 166.308 55.2501 166.022 55.0711 165.75C54.9746 165.605 54.5787 165.158 54.5855 165.629L54.682 166.249C55.8596 170.681 58.3215 174.985 61.1347 178.565C62.24 179.973 63.4451 181.302 64.7398 182.542L65.2804 182.381Z"
            fill="#000100" />
        <path
            d="M75.693 175.574C73.3585 173.555 71.1582 171.383 69.1129 169.072L68.5723 169.231C70.6176 171.544 72.8144 173.718 75.1524 175.735L75.693 175.574Z"
            fill="#000100" />
        <path d="M44.8927 143.223H44.266L44.903 150.908H45.5297L44.8927 143.223Z" fill="#000100" />
        <path
            d="M358.976 185.242C358.563 185.253 358.171 185.238 357.785 185.2C356.511 185.08 355.364 184.719 354.094 184.251C352.438 183.641 350.843 182.818 349.511 181.657C347.617 180.004 346.353 177.759 345.127 175.559C343.733 173.056 342.335 170.553 340.94 168.05C339.814 166.025 338.678 163.98 338.017 161.759C337.359 159.541 337.208 157.097 338.045 154.937C338.751 153.123 340.937 150.416 343.182 150.988C344.232 151.257 345.186 152.197 346.002 152.857C347.038 153.701 347.948 154.683 348.753 155.747C350.351 157.857 351.522 160.161 352.971 162.362C355.657 166.434 359.279 169.643 361.611 173.961C362.878 176.307 363.745 178.852 363.532 181.551C363.456 182.529 363.16 183.51 362.554 184.284L362.031 184.767C361.17 185.238 359.93 185.218 358.976 185.242Z"
            fill="#FDB082" />
        <path
            d="M342.494 177.843L342.569 177.984L342.969 178.476C343.306 178.651 343.702 178.428 344.016 178.21C346.915 176.197 349.794 174.093 352.238 171.528C353.127 170.601 354.063 169.712 354.862 168.704C355.499 167.904 356.697 166.494 356.597 165.416C356.542 164.867 356.243 164.379 355.95 163.914C354.325 161.373 352.545 158.936 350.623 156.614C349.773 155.585 348.936 154.493 347.879 153.701C346.736 152.844 345.624 151.966 344.408 151.198C343.661 150.723 342.866 150.275 341.988 150.171C340.039 149.955 339.388 151.621 339.064 153.226C338.444 156.301 337.797 159.28 337.821 162.434C337.842 164.931 337.628 167.622 338.462 170.025C339.391 172.709 341.165 175.322 342.494 177.843Z"
            fill="#4490E2" />
        <path
            d="M370.016 291.478C368.804 291.722 367.668 292.339 366.748 293.172C366.149 293.712 365.609 294.408 365.574 295.214C365.536 296.068 366.067 296.829 366.549 297.535C367.409 298.785 368.198 300.083 368.918 301.418C369.634 302.762 369.785 303.674 371.407 303.939C372.788 304.17 374.337 303.95 375.456 303.065C376.334 302.365 377.743 300.586 377.708 299.438C377.695 299.016 377.526 298.608 377.361 298.217C376.958 297.259 376.555 296.302 376.152 295.341C375.811 294.54 375.467 293.719 374.902 293.052C373.928 291.887 372.357 291.302 370.839 291.378L370.016 291.478Z"
            fill="#FCB285" />
        <path
            d="M365.636 307.483L365.729 308.092H390.927L391.161 307.338L391.154 307.227C391.099 306.614 390.714 306.06 390.221 305.654C389.729 305.247 389.133 304.965 388.537 304.7C387.814 304.369 387.088 304.06 386.361 303.74C384.863 303.085 383.369 302.428 381.93 301.676C380.886 301.133 379.864 300.537 378.906 299.862C378.352 299.469 377.66 298.867 377.016 299.266C376.665 299.484 376.579 299.908 376.276 300.12C375.839 300.434 375.091 300.403 374.592 300.385C373.294 300.338 372.013 300.027 370.78 299.608C369.764 299.263 368.621 298.853 367.685 299.38C366.49 300.058 366.149 301.866 365.956 303.126C365.732 304.566 365.66 306.026 365.636 307.483Z"
            fill="#4490E2" />
        <path
            d="M377.626 300.087C379.268 300.937 380.907 301.784 382.546 302.638C382.942 302.841 383.341 303.047 383.737 303.25L384.371 303.581L384.829 303.864L384.736 304.729C384.523 305.148 384.306 305.568 384.089 305.992L383.748 305.943C383.948 305.544 384.147 305.151 384.35 304.755L384.56 304.239L384.278 303.797C383.514 303.398 382.742 303.003 381.978 302.607C380.442 301.811 378.907 301.019 377.374 300.221L377.626 300.087Z"
            fill="#000100" />
        <path
            d="M383.576 304.38L383.885 304.194C384.161 303.687 384.498 303.226 384.891 302.817L384.887 302.29L384.385 302.294C383.947 302.749 383.572 303.261 383.269 303.822L383.4 304.331L383.576 304.38Z"
            fill="white" />
        <path
            d="M381.913 303.385L382.223 303.199C382.498 302.696 382.835 302.232 383.225 301.825L383.221 301.299H382.718C382.285 301.756 381.909 302.27 381.603 302.827L381.734 303.337L381.913 303.385Z"
            fill="white" />
        <path
            d="M380.008 302.39L380.318 302.204C380.594 301.701 380.931 301.239 381.32 300.83V300.303H380.814C380.38 300.76 380.005 301.274 379.698 301.832L379.832 302.341L380.008 302.39Z"
            fill="white" />
        <path
            d="M391.037 307.444H365.653L365.639 308.195L365.729 308.801H390.93C391.099 308.567 391.182 308.271 391.154 307.936L391.037 307.444Z"
            fill="#000100" />
        <path
            d="M369.503 300.551C371.135 300.244 372.729 299.78 374.354 299.449C375.363 299.246 377.385 299.129 377.812 297.972C378.035 297.363 377.719 296.701 377.405 296.134C371.111 284.626 364.703 273.253 358.278 261.783C353.247 252.806 348.213 243.82 343.788 234.529C341.433 229.592 339.25 224.561 336.612 219.761C335.579 217.885 334.602 215.532 333.362 213.826C332.157 212.166 329.399 212.049 327.546 211.938C324.289 211.745 316.448 210.312 314.355 213.426C311.48 217.706 312.379 226.879 313.773 231.554C315.626 237.77 319.437 243.61 322.943 248.988C326.899 255.059 330.869 261.122 334.977 267.086C343.241 279.083 352.038 290.596 361.394 301.753L361.983 302.273C363.167 302.813 368.122 300.806 369.503 300.551Z"
            fill="#FFB24E" />
        <path
            d="M301.116 289.611C300.031 287.418 296.305 286.768 294.322 287.828C293.341 288.348 292.697 289.322 292.132 290.28C290.603 292.863 288.041 296.767 288.255 299.886C288.355 301.316 290.097 303.702 291.547 303.939C292.928 304.17 294.477 303.95 295.596 303.065C296.977 301.97 297.882 299.897 298.774 298.399C299.924 296.474 300.937 294.421 301.315 292.187C301.46 291.322 301.501 290.4 301.116 289.611Z"
            fill="#FCB285" />
        <path
            d="M285.776 307.483L285.869 308.092H311.07L311.301 307.338L311.294 307.227C311.239 306.614 310.853 306.06 310.361 305.654C309.868 305.247 309.273 304.965 308.68 304.7C307.957 304.369 307.227 304.06 306.501 303.74C305.006 303.085 303.512 302.428 302.069 301.676C301.026 301.133 300.003 300.537 299.046 299.862C298.495 299.469 297.8 298.867 297.156 299.266C296.805 299.484 296.718 299.908 296.415 300.12C295.982 300.434 295.231 300.403 294.732 300.385C293.434 300.338 292.153 300.027 290.92 299.608C289.904 299.263 288.761 298.853 287.824 299.38C286.63 300.058 286.289 301.866 286.096 303.126C285.872 304.566 285.8 306.026 285.776 307.483Z"
            fill="#4490E2" />
        <path
            d="M297.765 300.087C299.407 300.937 301.046 301.784 302.685 302.638C303.085 302.841 303.481 303.047 303.877 303.25L304.514 303.581L304.968 303.864L304.875 304.729C304.662 305.148 304.445 305.568 304.232 305.992L303.887 305.943C304.09 305.544 304.29 305.151 304.49 304.755L304.703 304.239L304.417 303.797C303.653 303.398 302.885 303.003 302.117 302.607C300.582 301.811 299.046 301.019 297.514 300.221L297.765 300.087Z"
            fill="#000100" />
        <path
            d="M303.719 304.38L304.029 304.194C304.304 303.687 304.638 303.226 305.03 302.817L305.027 302.29L304.524 302.294C304.09 302.749 303.715 303.261 303.409 303.822L303.54 304.331L303.719 304.38Z"
            fill="white" />
        <path
            d="M302.052 303.385L302.362 303.199C302.637 302.696 302.975 302.232 303.364 301.825V301.299H302.858C302.424 301.756 302.049 302.27 301.742 302.827L301.873 303.337L302.052 303.385Z"
            fill="white" />
        <path
            d="M300.148 302.39L300.458 302.204C300.733 301.701 301.071 301.239 301.46 300.83V300.303H300.954C300.52 300.76 300.144 301.274 299.838 301.832L299.972 302.341L300.148 302.39Z"
            fill="white" />
        <path
            d="M311.177 307.444H285.796L285.779 308.195L285.872 308.801H311.07C311.239 308.567 311.325 308.271 311.294 307.936L311.177 307.444Z"
            fill="#000100" />
        <path
            d="M318.222 231.605C318.222 228.504 317.072 225.743 316.617 222.778C316.001 218.721 316.504 214.177 316.455 210.069C316.431 208.065 316.376 205.944 315.302 204.249C313.346 201.16 309.049 200.83 305.389 200.836C300.589 200.843 295.785 200.851 290.982 200.858C290.538 200.858 290.062 200.867 289.694 201.116C289.243 201.415 289.074 201.984 288.933 202.503C287.174 209.021 285.094 214.982 285.462 221.786C285.769 227.44 287.304 232.973 289.408 238.207C292.538 245.978 296.894 253.188 300.633 260.692C303.474 266.387 298.66 273.084 296.443 278.242C293.654 284.729 290.913 291.244 288.22 297.772C293.492 298.461 298.764 299.147 304.035 299.831C306.601 300.166 307.455 298.891 308.618 296.871C310.23 294.081 311.838 291.296 313.449 288.506C315.057 285.718 316.665 282.932 318.277 280.143C319.737 277.613 320.863 274.913 322.264 272.375C323.283 270.539 324.471 269.909 324.73 267.674C325.36 262.151 323.635 256.326 322.244 251.044C320.536 244.56 319.003 238.297 318.222 231.605Z"
            fill="#FFB24E" />
        <path
            d="M346.02 158.022C345.063 164.004 343.096 169.696 341.117 175.384C340.042 178.466 338.964 181.541 338.035 184.66C336.172 190.941 335.008 197.428 334.578 203.964C334.178 210.027 335.728 215.199 329.451 217.464C329.024 217.62 328.562 217.761 328.063 217.885L327.364 218.044C325.05 218.512 322.657 218.435 320.298 218.298C310.247 217.706 300.072 215.806 291.106 211.336C290.359 210.963 289.619 210.57 288.889 210.164C288.128 209.738 287.38 209.294 286.644 208.825C286.161 208.526 285.662 208.188 285.411 207.675C285.153 207.158 285.194 206.542 285.252 205.968C285.676 202.011 286.819 198.172 287.959 194.353C288.995 190.879 290.032 187.405 291.068 183.927C291.409 182.777 291.75 181.631 292.094 180.481V180.477C292.308 179.77 292.518 179.068 292.728 178.36C293.186 176.813 293.651 175.263 294.115 173.718C294.477 172.513 294.794 171.293 295.083 170.071C296.25 165.13 296.96 160.075 298.272 155.158C298.902 152.809 299.783 150.63 301.353 149.05C302.18 148.22 303.199 147.551 304.466 147.118C305.416 146.787 306.401 146.567 307.393 146.392C307.73 146.333 308.068 146.278 308.409 146.226C308.722 146.178 309.039 146.134 309.352 146.095C311.091 145.854 312.837 145.703 314.586 145.617C320.019 145.355 325.491 145.75 330.862 146.461C332.398 146.666 333.892 147.041 335.356 147.534C336.585 147.948 337.79 148.436 338.971 148.975H338.975L339.653 149.284C340.256 149.562 340.91 149.845 341.561 150.14L341.585 150.155C343.393 150.988 345.183 152.007 345.889 153.904C346.371 155.206 346.24 156.649 346.02 158.022Z"
            fill="#4490E2" />
        <path
            d="M335.356 147.534C335.225 148.723 334.385 149.868 333.617 150.712C330.952 153.65 326.658 154.996 322.794 154.107C321.424 153.791 319.651 152.926 318.098 151.725C316.001 150.113 314.317 147.895 314.586 145.617C320.019 145.355 325.491 145.75 330.862 146.46C332.398 146.666 333.892 147.041 335.356 147.534Z"
            fill="#FDB082" />
        <path
            d="M293.024 168.542C290.589 165.97 286.616 164.62 283.348 166.459C282.911 166.708 282.511 167.013 282.156 167.361L282.046 167.412C277.708 171.449 273.562 176.148 270.646 181.342C269.798 182.849 269.041 184.412 268.294 185.975C265.085 192.7 262.055 199.512 259.207 206.398C258.659 207.723 258.119 209.242 258.718 210.54C259.351 211.921 260.825 212.32 262.123 212.795C263.58 213.329 264.324 214.407 265.56 212.837C269.186 208.23 272.457 203.309 275.225 198.134C276.175 196.351 277.15 194.577 278.31 192.923C280.845 189.312 284.191 186.399 287.387 183.399C288.988 181.896 290.568 180.36 292.008 178.693C293.371 177.112 294.848 175.656 295.048 173.442C295.22 171.573 294.273 169.862 293.024 168.542Z"
            fill="#FDB082" />
        <path
            d="M308.567 151.776C307.696 150.23 306.232 148.933 304.483 148.639C302.376 148.288 300.327 149.408 298.53 150.561C294.673 153.036 291.051 155.881 287.728 159.038C286.065 160.615 284.478 162.275 282.969 164.004C282.208 164.882 280.838 166.121 280.039 167.399C278.545 169.789 280.972 171.996 282.329 173.954C284.725 177.413 287.329 180.501 290.214 183.547L290.82 183.947L291.519 183.692C294.783 181.514 297.844 179.026 300.654 176.285C302.049 174.925 303.46 173.514 304.672 171.985C305.743 170.645 306.287 169.027 307.338 167.626C310.492 163.412 311.253 156.535 308.567 151.776Z"
            fill="#4490E2" />
        <path
            d="M264.916 213.16C264.565 211.552 263.415 210.133 262.124 209.301C260.374 208.168 257.857 209.128 256.273 210.243C254.562 211.446 253.374 213.294 252.011 214.885C250.544 216.589 249.032 218.363 248.426 220.67C248.313 221.103 248.23 221.569 248.306 222.041L248.461 222.456L249.142 222.56L249.576 221.948C249.783 221.555 252.589 217.754 252.679 217.867L252.861 218.088C252.765 217.977 249.962 222.708 249.752 223.077C249.356 223.762 248.953 224.491 248.925 225.363C248.908 225.915 249.156 226.627 249.638 226.74C250.007 226.826 250.299 226.52 250.53 226.224C251.46 225.036 252.169 223.679 253.044 222.443C253.629 221.61 254.214 220.783 254.8 219.953L255.034 220.16L253.068 223.28C252.259 224.482 251.597 225.835 251.119 227.288C251.022 227.574 250.936 227.873 250.947 228.19C250.96 228.515 251.095 228.872 251.343 229.051L252.059 229.109L252.61 228.632C253.336 227.756 253.867 226.689 254.521 225.742C255.395 224.478 256.267 223.211 257.134 221.941L257.334 222.103C256.731 223.138 256.18 224.237 255.602 225.26C255.103 226.142 254.445 227.016 254.07 227.987C253.867 228.506 253.877 228.913 254.176 229.457L255.085 229.901C256.291 228.628 257.42 227.257 258.463 225.797C259.441 224.429 260.116 222.942 260.956 221.465L261.101 221.383L261.135 221.604C260.905 222.337 260.695 223.094 260.64 223.897C260.55 225.202 260.794 226.317 261.945 226.965C262.864 227.482 262.891 225.222 262.922 224.623C262.967 223.811 263.349 222.926 263.559 222.14C263.825 221.162 264.086 220.187 264.348 219.214C264.654 218.074 264.964 216.927 265.068 215.742C265.147 214.827 265.092 213.967 264.916 213.16Z"
            fill="#FDB082" />
        <path
            d="M314.961 113.939L314.806 114.056C313.756 114.882 313.043 116.067 312.502 117.288C311.204 120.226 310.777 123.49 310.894 126.699C310.929 127.673 311.018 128.662 311.37 129.574C311.659 130.332 312.22 131.255 313.022 131.551C313.708 131.802 314.324 131.633 315.009 132.109C315.777 132.639 316.431 133.317 317.199 133.851C319.871 135.731 323.394 135.641 326.641 136.03C329.468 136.365 332.243 137.115 335.084 137.27C335.907 137.314 336.754 137.305 337.522 137.012C339.05 136.426 339.946 134.87 340.713 133.425C342.167 130.703 343.289 127.178 343.303 124.075C343.31 122.547 343.02 121.02 342.559 119.565C342.198 118.415 341.722 117.285 341.023 116.301C340.383 115.402 339.563 114.637 338.692 113.952C334.126 110.346 327.966 108.829 322.25 109.931C321.238 110.123 320.209 110.405 319.313 110.935C318.601 111.356 318.194 112.014 317.516 112.445C316.683 112.974 315.756 113.356 314.961 113.939Z"
            fill="#AF565C" />
        <path
            d="M329.736 150.926C327.464 151.429 325.084 151.394 322.798 151.012C321.521 150.805 320.24 150.475 319.138 149.807C318.212 149.246 317.361 148.385 317.01 147.348C316.796 146.708 316.858 145.964 316.986 145.231C317.079 144.677 317.217 144.129 317.303 143.644L317.31 143.598C317.365 143.285 317.423 142.989 317.513 142.721C317.664 142.269 317.915 141.891 318.449 141.629L318.711 141.508C319.248 141.26 319.809 141.071 320.384 140.936L320.45 140.923L320.739 140.861C321.097 140.792 321.459 140.741 321.824 140.702C322.264 140.658 322.709 140.627 323.149 140.6L323.27 140.589C324.172 140.53 325.074 140.475 325.976 140.421C327.233 140.342 328.49 140.258 329.747 140.183L329.871 140.172H329.881C331.183 140.073 332.364 139.821 332.815 141.422C332.994 142.066 332.945 142.748 332.928 143.417L332.921 144.053C332.925 144.587 332.952 145.121 333.038 145.648C333.138 146.271 333.493 146.849 333.603 147.441L333.62 147.558C333.923 149.866 331.479 150.54 329.736 150.926Z"
            fill="#FDB082" />
        <path
            d="M331.682 144.04C331.465 144.763 331.048 145.234 330.507 145.734C329.016 147.118 327.519 147.569 325.542 147.893C323.776 148.178 321.613 148.068 319.933 147.48C319.021 147.163 317.729 146.281 316.986 145.231C317.079 144.677 317.216 144.129 317.302 143.644L317.309 143.598C317.364 143.285 317.423 142.989 317.512 142.721C317.664 142.269 317.915 141.891 318.449 141.629L318.711 141.508C319.248 141.26 319.809 141.071 320.384 140.936L320.45 140.923L320.739 140.861C321.1 140.823 321.462 140.768 321.823 140.702L322.223 140.631L322.347 140.624C323.246 140.565 324.148 140.51 325.05 140.452C326.307 140.373 327.563 140.289 328.82 140.214C329.147 140.194 329.509 140.159 329.87 140.172H329.881C330.449 140.183 331.017 140.289 331.423 140.696C332.195 141.457 331.971 143.088 331.682 144.04Z"
            fill="#ED7D6B" />
        <path
            d="M312.313 130.197C312.389 131.133 312.485 132.049 312.451 133.027C312.392 134.532 312.303 136.058 312.592 137.545C313.012 139.718 314.09 141.77 315.687 143.306C318.008 145.54 320.897 147.238 324.21 147.09C324.781 147.063 325.346 146.986 325.911 146.891C327.908 146.556 329.688 145.922 331.482 145.041C332.529 144.529 333.383 143.726 334.133 142.831C336.902 139.528 338.417 135.263 338.675 130.959C338.799 128.933 338.651 126.895 338.279 124.902C337.935 123.063 337.518 120.693 336.533 119.073C335.022 116.576 330.704 115.378 328.001 114.967C325.019 114.509 321.889 114.72 318.907 115.027C316.479 115.27 314.562 118.658 313.732 120.656C312.637 123.287 312.134 126.162 312.237 129.01C312.251 129.412 312.279 129.805 312.313 130.197Z"
            fill="#FDB082" />
        <path
            d="M317.296 122.547C318.098 123.448 318.997 124.22 319.837 124.774L320.315 124.957L320.908 124.368C321.166 123.72 321.252 123.004 321.162 122.305C323.008 123.108 324.523 124.55 326.376 125.333C327.97 126.004 329.722 126.154 331.417 126.496C332.56 126.733 333.724 127.07 334.715 127.704C335.955 128.496 335.872 129.447 336.619 130.606C336.946 131.11 337.287 131.385 337.394 131.981C337.577 133.017 337.935 134.054 338.765 134.749C339.408 135.287 339.932 134.44 340.376 133.948C340.634 133.665 340.879 133.363 341.047 133.017C342.067 130.906 342.421 128.518 342.342 126.176C342.284 124.364 341.97 122.574 341.55 120.814C341.385 120.122 341.316 119.299 340.961 118.683C340.631 118.102 340.231 117.55 339.815 117.02C336.547 112.895 331.299 110.633 326.059 111.052C322.509 111.339 318.997 112.399 316.194 114.665C315.595 115.147 314.94 115.625 314.827 116.424C314.527 118.532 315.732 120.786 317.296 122.547Z"
            fill="#AF565C" />
        <path
            d="M337.594 131.251C338.537 131.165 339.529 131.626 340.011 132.442C340.3 132.924 340.4 133.499 340.407 134.065C340.441 135.999 339.364 137.917 337.69 138.892C337.101 139.236 336.426 139.473 335.745 139.404C335.07 139.336 334.402 138.905 334.188 138.254C334.078 137.921 334.095 137.556 334.126 137.204C334.312 135.042 334.849 131.513 337.594 131.251Z"
            fill="#FDB082" />
        <path
            d="M329.323 131.915C329.32 132.67 329.877 133.283 330.566 133.286C331.258 133.29 331.819 132.68 331.823 131.926C331.826 131.175 331.272 130.562 330.58 130.559C329.891 130.555 329.33 131.165 329.323 131.915Z"
            fill="#000100" />
        <path
            d="M316.91 130.803C316.745 131.54 317.158 132.257 317.833 132.407C318.508 132.56 319.186 132.085 319.351 131.348C319.513 130.617 319.1 129.898 318.428 129.75C317.754 129.598 317.075 130.07 316.91 130.803Z"
            fill="#000100" />
        <path
            d="M321.427 133.169C321.772 132.773 322.02 132.308 322.164 131.802L322.612 131.867C322.491 132.301 322.295 132.711 322.027 133.072L321.572 133.582L321.166 134.096C321.011 134.519 321.321 134.97 321.617 135.246C321.94 135.552 322.354 135.755 322.756 135.934L322.812 136.102L322.502 136.1C321.772 135.771 320.69 135.215 320.677 134.285C320.666 133.789 321.142 133.5 321.427 133.169Z"
            fill="#ED7D6B" />
        <path
            d="M317.192 126.379C318.305 126.123 319.548 126.086 320.55 126.71L320.784 126.898C321.135 127.346 320.629 127.684 320.236 127.739C319.785 127.798 319.331 127.697 318.883 127.697C317.454 127.684 316.035 127.99 314.73 128.569L314.369 128.407C314.799 127.24 316.056 126.637 317.192 126.379Z"
            fill="#AF565C" />
        <path
            d="M331.114 127.25C329.953 126.891 328.631 126.743 327.478 127.27L327.206 127.439C326.772 127.856 327.268 128.238 327.684 128.324C328.156 128.432 328.655 128.37 329.137 128.41C330.666 128.531 332.143 128.964 333.465 129.664L333.872 129.533C333.562 128.331 332.295 127.615 331.114 127.25Z"
            fill="#AF565C" />
        <path
            d="M326.713 140.145C325.777 140.799 324.668 141.216 323.211 141.061C321.686 140.899 320.326 140.159 319.589 139.232L319.524 139.15C319.255 138.806 318.804 138.168 319.083 137.848L319.214 137.749C319.654 137.528 320.502 137.683 321.021 137.7C322.592 137.751 324.165 137.815 325.735 137.938C326.259 137.979 326.81 138.038 327.254 138.237L327.705 138.558C328.142 139.106 327.264 139.764 326.713 140.145Z"
            fill="#ED7D6B" />
        <path
            d="M327.705 138.558C327.281 138.837 326.324 138.799 325.945 138.819C325.17 138.864 324.385 138.848 323.611 138.777C322.237 138.647 320.86 138.441 319.537 138.02L319.083 137.848L319.214 137.749C319.654 137.528 320.501 137.683 321.021 137.7C322.591 137.751 324.165 137.815 325.735 137.938C326.259 137.979 326.81 138.038 327.254 138.237L327.705 138.558Z"
            fill="white" />
        <path
            d="M320.36 121.434C318.435 120.49 317.134 118.484 317.027 116.349H316.4C316.511 118.594 317.898 120.673 319.916 121.662H320.36V121.434Z"
            fill="#000100" />
        <path
            d="M331.041 123.642C326.448 123.614 322.378 120.559 320.918 116.235L320.312 116.318C321.486 119.795 324.341 122.501 327.867 123.51C328.9 123.807 329.967 123.955 331.041 123.962C331.42 123.965 331.42 123.642 331.041 123.642Z"
            fill="#000100" />
        <path
            d="M334.725 113.966C334.505 113.88 334.027 114.096 334.409 114.241C337.546 115.447 339.784 118.587 339.99 121.93H340.617C340.4 118.4 338.01 115.23 334.725 113.966Z"
            fill="#000100" />
        <path
            d="M335.855 117.495L335.428 117.437L335.314 117.656C335.92 118.287 336.368 119.082 336.585 119.933L336.898 120.095L337.211 119.933C336.977 119.009 336.516 118.179 335.855 117.495Z"
            fill="#000100" />
        <path
            d="M320.883 244.407C319.585 240.372 318.198 236.362 316.714 232.388C316.29 231.254 315.86 230.126 315.422 228.999L314.696 229.102C316.232 233.055 317.678 237.043 319.024 241.065C319.41 242.211 319.788 243.361 320.157 244.511L320.883 244.407Z"
            fill="#000100" />
        <path
            d="M294.126 157.058C294.009 156.322 292.011 156.408 292.115 157.058C292.542 159.702 292.969 162.348 293.396 164.992C293.513 165.728 295.506 165.643 295.403 164.992C294.98 162.348 294.553 159.702 294.126 157.058Z"
            fill="white" />
        <path
            d="M314.82 186.171C313.811 184.323 312.806 182.477 311.8 180.628C311.473 180.026 309.504 180.238 309.862 180.9C310.867 182.75 311.876 184.595 312.881 186.443C313.209 187.045 315.178 186.833 314.82 186.171Z"
            fill="white" />
        <path
            d="M301.098 196.285C301.119 195.583 299.108 195.561 299.091 196.285C299.032 198.596 299.053 200.902 299.156 203.213C299.187 203.933 301.194 203.911 301.164 203.213C301.064 200.902 301.04 198.596 301.098 196.285Z"
            fill="white" />
        <path
            d="M317.017 208.095C316.869 207.53 315.498 207.661 315.181 207.974C313.701 209.455 312.107 210.802 310.399 212.018C310.013 212.292 310.502 212.634 310.76 212.72C311.201 212.864 311.755 212.806 312.134 212.537C313.646 211.455 315.068 210.265 316.407 208.98L316.617 208.901C317.003 208.718 317.124 208.502 317.017 208.095Z"
            fill="white" />
        <path
            d="M329.757 197.865C328.345 196.026 326.706 194.422 324.816 193.075C324.437 192.807 323.886 192.745 323.442 192.89C323.187 192.979 322.685 193.313 323.084 193.596C324.881 194.872 326.476 196.384 327.818 198.137C328.242 198.688 330.17 198.406 329.757 197.865Z"
            fill="white" />
        <path
            d="M333.135 177.601C332.057 175.897 330.979 174.193 329.905 172.488C329.537 171.903 327.581 172.147 327.967 172.76C329.044 174.464 330.119 176.168 331.196 177.874C331.565 178.459 333.521 178.214 333.135 177.601Z"
            fill="white" />
        <path
            d="M350.785 156.839C350.11 158.508 349.435 160.178 348.764 161.852C348.471 162.582 350.448 162.754 350.702 162.123C351.374 160.454 352.049 158.779 352.724 157.11C353.013 156.384 351.036 156.212 350.785 156.839Z"
            fill="white" />
        <path
            d="M329.922 214.717C329.733 215.629 329.574 216.549 329.45 217.464C329.023 217.62 328.562 217.761 328.063 217.885L327.364 218.044C327.502 216.931 327.687 215.821 327.911 214.717C328.063 213.976 330.05 214.093 329.922 214.717Z"
            fill="white" />
        <path
            d="M291.106 211.336C290.359 210.963 289.618 210.57 288.888 210.164C288.503 208.002 288.113 205.84 287.731 203.677C287.614 203.034 289.604 202.937 289.739 203.677C290.193 206.228 290.651 208.784 291.106 211.336Z"
            fill="white" />
        <path
            d="M313.676 160.399L307.341 164.145C306.366 164.723 308.195 165.202 308.763 164.867L315.099 161.121C316.073 160.543 314.245 160.062 313.676 160.399Z"
            fill="white" />
        <path
            d="M291.595 177.326C291.051 176.826 289.577 178.183 290.076 178.638C291.984 180.38 293.895 182.123 295.806 183.858C296.35 184.357 297.824 183 297.324 182.549C295.413 180.807 293.506 179.064 291.595 177.326Z"
            fill="white" />
        <path
            d="M309.386 147.84C309.335 148.902 309.242 149.962 309.121 151.012C309.09 151.288 308.801 151.48 308.45 151.577C307.85 151.742 307.083 151.635 307.127 151.243C307.172 150.851 307.207 150.46 307.234 150.072C307.324 148.842 307.351 147.62 307.392 146.392C307.73 146.333 308.067 146.278 308.408 146.226C308.722 146.178 309.038 146.134 309.352 146.094C309.369 146.863 309.397 147.692 309.386 147.84Z"
            fill="white" />
        <path
            d="M341.96 151.535C342.074 152.173 340.083 152.272 339.949 151.535L339.853 151.102C339.663 150.368 339.343 149.659 338.975 148.974L339.653 149.284C340.256 149.562 340.91 149.845 341.561 150.14L341.564 150.155C341.74 150.599 341.874 151.06 341.96 151.535Z"
            fill="white" />
        <path
            d="M305.964 170.601L305.499 170.736C302.565 174.526 299.108 177.918 295.265 180.785C294.17 181.599 293.044 182.374 291.887 183.103C291.526 183.328 292.211 183.507 292.421 183.372C296.546 180.77 300.313 177.618 303.588 173.996C304.507 172.976 305.385 171.923 306.229 170.835L305.964 170.601Z"
            fill="#000100" />
        <path
            d="M343.489 163.666C342.676 167.419 341.901 171.184 341.171 174.954H341.922C342.656 171.184 343.427 167.419 344.243 163.666H343.489Z"
            fill="#000100" />
        <path
            d="M332.164 194.305C329.282 200.213 325.133 205.482 320.068 209.676C318.649 210.853 317.158 211.948 315.605 212.947C315.243 213.174 315.929 213.349 316.139 213.215C321.727 209.627 326.524 204.855 330.136 199.284C331.152 197.717 332.071 196.084 332.89 194.408L332.164 194.305Z"
            fill="#000100" />
        <path
            d="M311.48 202.937C309.989 204.531 308.381 206.006 306.659 207.352L306.797 207.613L307.31 207.542C309.032 206.202 310.64 204.728 312.127 203.134L311.48 202.937Z"
            fill="#000100" />
        <path
            d="M337.229 164.727C338.393 165.977 339.422 167.35 340.352 168.783C341.364 170.35 342.39 171.817 343.206 173.514C344.053 175.274 344.79 177.088 345.641 178.845C347.231 182.132 349.39 185.394 352.693 186.959C354.9 188.007 357.575 188.169 359.772 187.105C361.965 186.037 363.542 183.651 363.357 181.216C363.226 179.464 362.33 177.474 361.246 176.121C359.896 174.433 358.405 172.874 356.845 171.376C355.189 169.789 353.457 168.273 351.728 166.769C349.428 164.758 347.128 162.75 344.825 160.743C343.382 159.479 341.97 158.181 340.472 156.987C339.729 156.391 338.961 155.822 338.165 155.299C337.8 155.062 337.432 154.861 337.05 154.659C336.716 154.486 336.444 154.214 336.113 154.029C335.686 153.787 335.221 153.632 334.746 153.512C332.725 152.996 330.6 153.126 328.517 153.257C328.076 153.285 327.632 153.312 327.205 153.429C326 153.76 324.785 155.093 323.958 155.987C323.452 156.535 322.949 157.161 322.746 157.896C322.571 158.556 322.874 159.327 323.6 159.493C324.013 159.593 324.447 159.479 324.843 159.331C324.516 159.947 324.826 160.774 325.422 161.143C326.014 161.503 326.799 161.459 327.426 161.156C327.288 161.796 327.68 162.512 328.297 162.75C328.91 162.981 329.681 162.706 330.005 162.13C329.967 162.616 329.967 163.191 330.352 163.483C330.604 163.677 330.945 163.686 331.258 163.686C331.744 163.686 332.288 163.666 332.625 163.315L332.804 163.16L333.059 163.174C333.634 163.318 334.25 163.383 334.839 163.326C335.356 163.273 335.734 163.136 336.165 163.507C336.571 163.858 336.864 164.335 337.229 164.727Z"
            fill="#FDB082" />
        <path
            d="M327.102 156.773L326.551 156.848C325.804 157.399 325.15 158.071 324.609 158.825L324.65 158.983L324.892 159.077L325.384 158.936C325.9 158.212 326.534 157.583 327.247 157.055L327.102 156.773Z"
            fill="#ED7D6B" />
        <path
            d="M329.326 158.905L328.776 158.98C328.197 159.468 327.694 160.048 327.288 160.688L327.329 160.845L327.567 160.94L328.063 160.799C328.452 160.185 328.913 159.658 329.471 159.187L329.326 158.905Z"
            fill="#ED7D6B" />
        <path
            d="M331.603 160.309H331.034C330.425 160.612 329.908 161.081 329.547 161.659L329.585 161.817L329.826 161.909L330.322 161.77L330.453 161.576L330.518 161.483L330.552 161.442L330.573 161.417L330.886 161.09L331.244 160.805L331.286 160.774L331.293 160.77L331.389 160.715L331.603 160.598L331.723 160.454L331.603 160.309Z"
            fill="#ED7D6B" />
        <path
            d="M338.613 162.059L338.431 161.938L338.117 161.914L337.88 162.01L337.129 162.781L336.946 162.898L336.833 162.951L336.812 162.96L336.764 162.978L336.657 163.009L336.63 163.012L336.578 163.022L336.526 163.019L336.451 163.009L335.955 163.154L336.237 163.405C336.723 163.487 337.243 163.37 337.652 163.105C338.017 162.867 338.296 162.551 338.572 162.216L338.613 162.059Z"
            fill="#ED7D6B" />
        <path
            d="M363.129 178.72C361.755 174.885 358.581 172.153 355.557 169.595L355.01 169.524L354.865 169.802C357.861 172.34 360.991 175.026 362.354 178.83L363.129 178.72Z"
            fill="#ED7D6B" />
        <path
            d="M203.357 276.077C204.714 276.383 205.957 276.995 206.838 278.056C208.277 279.787 208.377 282.237 208.405 284.488C208.453 287.914 208.494 291.337 208.543 294.759C208.563 296.078 208.653 297.421 208.477 298.733C208.333 299.824 206.955 301.645 206.955 302.404C203.884 305.323 198.829 304.907 197.149 300.82C195.943 297.886 196.078 294.75 195.651 291.646C195.131 287.848 194.356 283.983 195.114 280.156C195.341 279.017 195.73 277.853 196.581 277.068C197.541 276.18 198.925 275.918 200.23 275.845C201.263 275.787 202.341 275.842 203.357 276.077Z"
            fill="#FCB285" />
        <path
            d="M193.382 308.801L180.634 308.719C180.455 308.461 180.359 308.141 180.366 307.782L180.373 307.641C180.438 306.881 180.9 306.198 181.485 305.691C182.07 305.192 182.776 304.848 183.475 304.521C184.333 304.118 185.193 303.733 186.058 303.343C187.824 302.537 189.594 301.736 191.302 300.809C192.538 300.142 193.747 299.411 194.883 298.577C195.53 298.1 196.257 297.16 197.049 297.897L197.803 298.771C198.471 299.407 199.497 299.449 200.413 299.346C202.582 299.111 204.641 298.323 206.728 297.686C207.351 297.493 208.057 297.325 208.632 297.631C209.224 297.951 209.465 298.668 209.617 299.325C210.278 302.179 210.464 305.227 210.491 308.154L210.416 308.801H193.382Z"
            fill="#FF5C3D" />
        <path
            d="M193.609 308.801L180.631 308.715C180.435 308.426 180.335 308.058 180.373 307.641L180.514 307.031L210.477 307.225C210.484 307.534 210.488 307.843 210.491 308.154L210.415 308.801H193.609Z"
            fill="#000100" />
        <path
            d="M196.394 298.867C194.452 299.915 192.507 300.955 190.565 302.001C190.096 302.252 189.625 302.504 189.156 302.758L188.402 303.162L187.862 303.506C187.61 303.822 187.82 304.27 187.965 304.583C188.216 305.106 188.468 305.636 188.719 306.161L189.125 306.098C188.888 305.605 188.657 305.113 188.42 304.621L188.175 303.977L188.513 303.429C189.418 302.937 190.331 302.455 191.24 301.966C193.054 300.988 194.872 300.014 196.69 299.039L196.394 298.867Z"
            fill="#000100" />
        <path
            d="M189.336 304.159L188.971 303.926C188.651 303.298 188.255 302.72 187.8 302.21L187.803 301.553L188.399 301.557C188.909 302.128 189.35 302.771 189.708 303.468L189.546 304.098L189.336 304.159Z"
            fill="white" />
        <path
            d="M191.312 302.934L190.947 302.7C190.623 302.073 190.231 301.495 189.773 300.985L189.776 300.33L190.372 300.334C190.882 300.906 191.322 301.546 191.681 302.241L191.519 302.875L191.312 302.934Z"
            fill="white" />
        <path
            d="M193.564 301.716L193.199 301.478C192.879 300.851 192.483 300.272 192.025 299.763L192.032 299.105L192.628 299.112C193.137 299.68 193.578 300.324 193.933 301.023L193.774 301.652L193.564 301.716Z"
            fill="white" />
        <path
            d="M212.458 290.128C212.261 290.603 211.989 290.962 211.621 291.161C210.949 291.516 210.178 291.605 209.427 291.688C203.718 292.311 198.009 292.938 192.3 293.565C191.887 293.609 191.398 293.626 191.119 293.313C190.903 293.059 190.899 292.691 190.896 292.353C190.889 288.283 189.26 284.14 188.503 280.14C187.704 275.924 186.884 271.706 185.979 267.506C184.188 259.218 182.053 250.991 179.113 243.038C178.803 242.208 178.489 241.378 178.176 240.549C177.852 239.688 177.525 238.83 177.195 237.969C174.891 231.919 172.598 225.807 171.679 219.368C171.496 218.081 171.355 216.772 171.252 215.45C170.749 209.248 171.011 202.785 171.014 196.653C171.017 183.968 171.827 171.276 173.435 158.691C173.831 155.609 174.271 152.537 174.757 149.469L175.342 148.991C179.016 143.075 187.084 141.006 193.585 141.088C197.266 141.133 202.069 142.748 204.125 146.13C206.029 149.273 205.929 153.598 205.543 157.12C205.275 159.618 204.948 162.106 204.59 164.593C203.36 173.164 201.773 181.682 200.83 190.294C200.547 192.862 199.807 221.158 199.834 221.156C200.289 221.138 200.768 221.255 200.888 221.538C202.92 226.255 204.596 231.113 205.96 236.072C208.515 245.393 209.996 254.973 210.956 264.586C211.435 269.396 211.786 274.224 212.079 279.052C212.206 281.155 213.549 287.47 212.458 290.128Z"
            fill="#593D6E" />
        <path
            d="M132.242 200.733C133.565 201.163 134.749 201.891 135.524 203.026C136.801 204.886 136.67 207.334 136.491 209.579C136.219 212.991 135.944 216.408 135.675 219.82C135.572 221.134 135.538 222.474 135.241 223.765C134.997 224.844 133.454 226.526 133.386 227.285C130.056 229.901 125.06 229.02 123.768 224.795C122.839 221.761 123.262 218.648 123.128 215.525C122.959 211.689 122.546 207.771 123.658 204.032C123.985 202.924 124.485 201.798 125.404 201.092C126.444 200.296 127.842 200.165 129.15 200.213C130.183 200.251 131.254 200.406 132.242 200.733Z"
            fill="#FCB285" />
        <path
            d="M121.21 234.085L108.515 235.28C108.315 235.042 108.187 234.732 108.157 234.375L108.15 234.233C108.139 233.472 108.528 232.746 109.059 232.188C109.596 231.627 110.26 231.214 110.925 230.821C111.738 230.331 112.557 229.864 113.373 229.389C115.053 228.414 116.734 227.436 118.342 226.345C119.506 225.555 120.635 224.705 121.678 223.762C122.277 223.224 122.904 222.216 123.765 222.866L124.605 223.666C125.332 224.23 126.358 224.165 127.26 223.979C129.391 223.528 131.364 222.533 133.375 221.692C133.978 221.438 134.663 221.197 135.266 221.447C135.885 221.71 136.195 222.394 136.416 223.032C137.359 225.807 137.848 228.82 138.168 231.73L138.161 232.38L121.21 234.085Z"
            fill="#FF5C3D" />
        <path
            d="M121.437 234.064L108.514 235.276C108.291 235.011 108.153 234.649 108.149 234.233L108.229 233.613L138.061 230.806L138.168 231.731L138.158 232.38L121.437 234.064Z"
            fill="#000100" />
        <path
            d="M123.214 223.9C121.382 225.136 119.554 226.365 117.725 227.601C117.285 227.897 116.844 228.197 116.4 228.493L115.69 228.972L115.188 229.371C114.971 229.712 115.222 230.135 115.401 230.431C115.701 230.928 116.004 231.427 116.307 231.923L116.706 231.823C116.42 231.355 116.138 230.89 115.856 230.425L115.546 229.809L115.828 229.23C116.679 228.648 117.536 228.076 118.393 227.498C120.101 226.345 121.813 225.191 123.524 224.038L123.214 223.9Z"
            fill="#000100" />
        <path
            d="M116.72 229.874L116.334 229.674C115.952 229.082 115.501 228.548 114.995 228.084L114.933 227.433L115.529 227.378C116.09 227.894 116.593 228.49 117.02 229.148L116.923 229.791L116.72 229.874Z"
            fill="white" />
        <path
            d="M118.562 228.46L118.173 228.259C117.794 227.667 117.343 227.133 116.837 226.668L116.775 226.018L117.367 225.963C117.932 226.48 118.435 227.074 118.862 227.732L118.765 228.376L118.562 228.46Z"
            fill="white" />
        <path
            d="M120.68 227.016L120.298 226.816C119.915 226.228 119.461 225.694 118.955 225.226L118.896 224.575L119.488 224.52C120.053 225.036 120.556 225.632 120.979 226.293L120.883 226.933L120.68 227.016Z"
            fill="white" />
        <path
            d="M228.793 150.595C228.558 153.395 226.83 155.874 225.129 158.002C223.3 160.289 221.262 162.53 218.697 164.004C215.715 165.715 212.957 165.553 209.617 165.191C207.94 165.006 206.263 164.805 204.59 164.593C202.844 164.368 201.102 164.128 199.363 163.869C192.548 162.856 185.772 161.583 179.054 160.04C177.177 159.609 175.304 159.159 173.435 158.691C167.774 157.278 162.151 155.726 156.531 154.17C151.959 152.91 147.389 151.649 142.82 150.385C142.796 154.614 142.92 158.825 142.559 163.033C142.2 167.196 141.784 171.358 141.563 175.528C141.14 183.644 140.709 191.757 140.283 199.872C140.066 203.997 139.928 208.133 139.632 212.254C139.401 215.467 139.8 217.829 135.627 217.785C128.782 217.715 121.94 217.502 115.109 217.143C114.716 205.743 115.081 194.559 115.897 183.235C116.727 171.738 117.295 160.181 116.538 148.667C116.352 145.796 116.262 142.796 116.538 139.852C116.761 137.424 117.24 135.042 118.125 132.791C119.044 130.445 120.487 128.275 122.612 126.858C123.882 126.006 125.201 125.583 126.568 125.335C128.062 125.066 129.612 125.015 131.199 124.856C140.944 123.878 151.129 125.053 160.946 125.428C169.258 125.741 177.57 126.055 185.882 126.372C191.825 126.599 197.817 126.829 203.594 128.231C208.002 129.302 212.306 131.092 215.904 133.885C217.492 135.115 218.518 136.733 220.002 137.993C221.954 139.656 223.882 141.227 225.556 143.196C227.25 145.193 229.02 147.858 228.793 150.595Z"
            fill="#593D6E" />
        <path
            d="M127.883 136.956C127.59 138.323 129.281 139.614 128.809 140.927C128.565 141.602 127.842 141.953 127.184 142.235C125.659 142.896 123.861 143.543 122.412 142.735C121.038 141.966 120.387 140.055 118.841 139.766C118.083 139.625 117.288 139.936 116.537 139.852C116.761 137.424 117.24 135.042 118.125 132.791C119.044 130.445 120.487 128.275 122.611 126.858C123.882 126.006 125.201 125.583 126.568 125.335C126.85 125.607 127.108 125.918 127.256 126.286C127.821 127.642 126.764 129.209 127.108 130.648C127.477 132.204 129.433 133.369 129.006 134.918C128.796 135.669 128.048 136.195 127.883 136.956Z"
            fill="#FDB082" />
        <path
            d="M183.076 227.182C182.845 228.435 183.758 229.881 183.01 230.907C182.711 231.327 182.208 231.541 181.843 231.903C180.593 233.139 181.371 235.497 180.194 236.792C179.632 237.408 178.768 237.625 177.962 237.807L177.195 237.969C174.891 231.919 172.598 225.807 171.678 219.368C171.496 218.081 171.355 216.772 171.251 215.45C171.716 215.247 172.205 215.13 172.68 215.144C174.099 215.178 175.249 216.221 176.471 216.934C177.976 217.808 179.743 218.218 181.478 218.101C181.957 218.068 182.483 218.004 182.869 218.287L183.375 219.013C184.264 220.86 185.159 223.022 184.284 224.875C183.909 225.663 183.234 226.321 183.076 227.182Z"
            fill="#FDB082" />
        <path
            d="M203.412 164.847C201.401 164.066 199.211 163.907 197.09 163.604C195.427 163.364 193.764 163.105 192.108 162.823L191.378 162.699C185.441 161.684 179.546 160.423 173.713 158.925L173.579 158.663L174.092 158.594C176.268 159.152 178.451 159.676 180.641 160.172C184.226 160.973 187.828 161.686 191.447 162.309L192.176 162.434L192.331 162.461C194.304 162.788 196.281 163.095 198.264 163.37C200.127 163.629 202.024 163.828 203.791 164.514C204.245 164.692 203.677 164.951 203.412 164.847Z"
            fill="#000100" />
        <path
            d="M141.828 149.005C140.179 148.2 138.712 147.039 137.555 145.609L137.094 145.476L136.829 145.71C138.041 147.211 139.563 148.43 141.295 149.277H141.828V149.005Z"
            fill="#000100" />
        <path
            d="M140.279 150.447C139.484 150.316 138.702 150.065 137.972 149.703H137.442V149.979C138.275 150.389 139.164 150.671 140.079 150.82L140.544 150.685L140.279 150.447Z"
            fill="#000100" />
        <path
            d="M198.894 220.346L198.378 220.419C197.31 221.335 196.122 222.096 194.841 222.681V222.953H195.375C196.697 222.348 197.927 221.558 199.028 220.611L198.894 220.346Z"
            fill="#000100" />
        <path
            d="M199.339 222.818C199.232 224.23 199.129 225.641 199.025 227.054H199.779C199.883 225.641 199.986 224.23 200.089 222.818H199.339Z"
            fill="#000100" />
        <path
            d="M222.588 139.55C222.278 144.298 218.797 148.264 214.665 150.31C212.182 151.542 209.458 152.182 206.721 152.504C203.88 152.837 200.974 152.888 198.12 152.713C195.131 152.526 192.262 151.855 189.439 150.875C186.715 149.928 184.054 148.805 181.33 147.855C175.972 145.984 170.47 144.545 164.888 143.536C159.307 142.527 153.642 141.956 147.968 141.819C145.093 141.753 142.214 141.801 139.339 141.96C137.941 142.039 136.543 142.143 135.148 142.276C134.484 142.338 133.806 142.386 133.148 142.494C132.704 142.563 132.218 142.679 131.87 142.975C131.02 143.699 131.716 144.68 132.077 145.448C132.332 145.984 132.377 146.491 132.108 147.032C131.867 147.514 131.505 147.924 131.264 148.403C130.662 149.59 131.227 150.868 131.561 152.049C131.96 153.473 132.232 154.934 132.415 156.404C132.773 159.283 132.786 162.189 132.742 165.088C132.697 168.129 132.618 171.166 132.532 174.206C132.356 180.355 132.115 186.506 131.802 192.652C131.492 198.77 131.113 204.886 130.669 210.991C130.562 212.488 130.448 213.983 130.331 215.481H131.082C131.561 209.376 131.974 203.264 132.315 197.148C132.659 191.005 132.938 184.853 133.144 178.704C133.248 175.642 133.337 172.581 133.406 169.52C133.472 166.566 133.571 163.604 133.478 160.642C133.389 157.799 133.103 154.952 132.356 152.197C131.994 150.864 131.357 149.522 132.149 148.222C132.693 147.335 133.324 146.595 132.879 145.516C132.683 145.035 132.328 144.593 132.229 144.081C132.108 143.468 132.514 143.066 133.076 142.916C133.695 142.755 134.374 142.741 135.011 142.679C135.717 142.611 136.429 142.545 137.139 142.494C140 142.266 142.875 142.166 145.747 142.174C151.497 142.194 157.244 142.673 162.919 143.602C168.569 144.531 174.144 145.906 179.574 147.717C185.004 149.531 190.252 152.206 195.988 152.906C198.815 153.25 201.697 153.25 204.534 153.082C207.227 152.919 209.927 152.537 212.495 151.687C216.899 150.226 221.004 147.176 222.667 142.707C223.042 141.691 223.269 140.631 223.342 139.55H222.588Z"
            fill="#000100" />
        <path
            d="M203.367 290.625H202.613C202.513 289.567 202.413 288.506 202.313 287.446C201.508 278.948 200.647 270.453 199.297 262.024C197.958 253.612 196.129 245.262 193.406 237.192C192.035 233.115 190.245 229.189 188.922 225.098C187.59 220.966 187.032 216.658 186.774 212.334C186.233 203.41 186.76 194.453 187.81 185.582C188.719 177.914 190.021 170.299 191.377 162.699L191.446 162.309L192.176 162.434L192.107 162.823C190.561 171.489 189.095 180.177 188.192 188.937C187.287 197.772 186.894 206.773 187.786 215.633C188.237 220.099 189.301 224.33 190.913 228.517C192.455 232.515 194.008 236.481 195.255 240.586C197.696 248.619 199.325 256.876 200.533 265.182C201.766 273.631 202.568 282.129 203.367 290.625Z"
            fill="#000100" />
        <path
            d="M258.952 84.5981C256.173 90.0481 251.425 94.1357 248.371 99.3936C246.622 102.413 245.351 105.681 244.091 108.938C240.451 118.321 235.978 127.337 233.313 137.101C232.459 140.227 231.771 143.395 230.831 146.501C230.242 148.454 229.457 151.422 227.687 152.682C225.958 153.912 223.021 152.809 221.307 151.946C212.175 147.345 208.039 136.192 199.318 130.858C194.521 127.929 188.781 127.037 183.186 126.523C180.793 126.302 181.829 124.843 182.535 123.497C183.564 121.523 183.874 118.985 184.37 116.824C185.462 112.089 186.367 107.317 187.087 102.517C188.526 92.913 189.232 83.2032 189.177 73.4934C189.15 67.7125 188.867 61.8062 190.582 56.2862C191.216 54.2485 192.211 52.176 194.022 51.0435C196.343 49.5959 199.001 50.1341 201.473 50.7126C204.403 51.4012 207.299 51.896 210.13 52.9951C212.805 54.0281 215.391 54.9371 218.073 55.6327C219.664 56.0428 221.296 56.3806 222.997 56.624C227.56 57.2817 232.218 57.6718 236.571 59.2898C237.263 59.5481 237.934 59.8614 238.585 60.2085C241.711 61.8788 244.449 64.4131 247.617 66.1103C250.685 67.7528 253.829 69.368 256.363 71.7584C258.084 73.3764 259.517 75.4048 260.205 77.6832C260.98 80.2629 260.137 82.2632 258.952 84.5981Z"
            fill="#9F8392" />
        <path
            d="M238.585 60.2085C237.962 61.029 237.112 61.7377 236.282 62.3509C230.986 66.2491 224.85 69.0065 218.421 70.3769L217.722 70.381C217.326 70.2182 217.233 69.7017 217.202 69.2754L217.196 69.1759C217.023 66.6795 217.003 64.179 217.14 61.6867C217.268 59.2926 217.264 57.5709 218.074 55.6327C219.664 56.0428 221.296 56.3806 222.997 56.624C227.56 57.2817 232.219 57.6718 236.571 59.2898C237.263 59.5481 237.935 59.8614 238.585 60.2085Z"
            fill="#FDB082" />
        <path
            d="M256.064 117.374C256.484 118.515 256.89 119.665 257.403 120.739C259.486 125.09 262.258 129.192 266.056 132.226C266.762 132.791 267.509 133.324 268.356 133.634C269.368 134.012 270.463 134.065 271.541 134.071C272.901 134.085 274.344 134.012 275.463 133.241C277.267 132.005 277.722 129.591 277.739 127.577C277.756 125.801 277.274 124.061 276.734 122.375C274.43 115.219 270.918 108.516 268.229 101.497C267.488 99.563 266.752 97.517 265.205 96.1425C264.259 95.3033 263.071 94.7758 261.862 94.3833C259.889 93.747 257.813 93.4336 255.74 93.4646C255.096 93.4712 254.431 93.5225 253.853 93.7983C251.401 94.9655 250.892 98.5152 250.919 100.912C250.943 102.975 251.388 105.017 251.952 107.004C252.644 109.438 253.44 111.831 254.638 114.038C255.21 115.085 255.643 116.228 256.064 117.374Z"
            fill="#FDB082" />
        <path
            d="M293.526 93.275L293.409 92.4627C293.13 91.7324 292.142 91.26 291.522 90.8512C290.438 90.1409 289.615 89.4457 288.761 88.4747C288.017 87.6352 287.253 87.2451 286.134 87.1941L285.163 87.5732C283.489 90.9132 282.026 94.2663 280.776 97.7864C279.602 101.082 278.063 104.183 276.262 107.176C274.488 110.127 272.529 112.964 270.67 115.855C269.251 118.063 267.76 120.481 267.929 123.115C267.657 127.309 268.559 132.425 273.362 133.465C275.236 133.868 277.315 133.496 278.696 132.109C280.401 130.397 281.654 128.032 282.835 125.945C286.85 118.859 288.961 111.121 291.226 103.351C291.939 100.908 292.635 98.4575 293.072 95.9504C293.192 95.259 293.516 94.1627 293.526 93.275Z"
            fill="#FDB082" />
        <path
            d="M252.155 116.524C254.996 115.553 259.18 113.336 259.772 113.019C262.933 111.339 265.835 109.173 268.339 106.613C269.492 105.436 269.637 104.861 269.179 103.459C268.652 101.841 268.067 100.237 267.519 98.6253C266.937 96.9143 266.359 95.2061 265.78 93.502C265.319 92.1488 264.141 90.0966 264.141 88.6814C263.112 85.6551 262.086 82.6315 261.056 79.6052C260.216 77.1398 260.168 74.9836 256.945 74.818C252.679 74.6017 248.733 77.6281 246.791 81.4305C245.021 84.9072 244.601 88.7943 243.822 92.5444C242.958 96.6871 244.336 100.96 245.627 104.865C246.932 108.805 248.233 112.74 249.538 116.679C249.704 117.171 250.768 116.996 252.155 116.524Z"
            fill="#9F8392" />
        <path
            d="M287.304 79.4224C288.027 78.5306 288.881 77.7356 289.814 77.2676C290.6 76.8775 291.478 76.7673 292.342 76.7711C292.783 76.7739 293.278 76.7646 293.709 76.8534C294.057 76.9298 294.294 77.1182 294.649 76.8882L295.114 76.4096C296.753 74.3367 299.029 72.666 301.084 71.0105C302.017 70.2557 303.002 69.5026 304.166 69.231L305.11 69.1921C305.423 69.262 305.716 69.4503 305.857 69.7327C306.26 70.5384 305.399 71.1623 304.886 71.6723C304.238 72.3193 303.529 72.9001 302.82 73.4717C301.043 74.9017 299.38 76.3407 298.147 78.2831C298.75 78.1553 299.376 78.5816 299.6 79.1532C299.824 79.7248 299.704 80.3893 299.414 80.9299C300.007 80.5832 300.836 80.9447 301.133 81.5635C301.429 82.1836 301.274 82.9491 300.891 83.5193C301.339 83.5031 301.735 83.8299 301.959 84.2121C302.351 84.8804 302.341 85.7264 302.09 86.4609C301.677 87.6592 300.778 88.4339 299.931 89.3044C298.908 90.3656 297.81 91.35 296.646 92.2594C295.196 93.3919 293.53 94.1732 291.657 94.1976C291.295 94.2014 290.927 94.1773 290.6 94.0293C289.99 93.7603 289.587 93.1337 288.961 92.9064L288.544 92.7232L288.096 92.0965L287.222 91.5532C286.464 91.0959 284.839 90.1962 284.894 89.1873C284.99 87.3486 285.159 85.5099 285.4 83.6846C285.624 81.9846 286.22 80.7726 287.304 79.4224Z"
            fill="#FDB082" />
        <path
            d="M296.866 76.992L295.926 76.7957C295.513 76.7782 295.103 76.8092 294.697 76.8708L294.521 77.0295L294.831 77.1184C295.165 77.0674 295.503 77.0405 295.84 77.0471L296.343 77.0874L296.57 77.4465C296.625 78.0518 296.043 78.5442 295.575 78.8238C295.041 79.1399 294.494 79.2301 293.884 79.2505C293.306 79.2639 292.752 79.6013 292.232 79.8392L291.973 79.9147C291.536 80.4838 291.109 81.062 290.703 81.658L290.52 82.3115C290.624 82.6665 290.765 83.0002 290.851 83.3621C291.174 84.7153 291.099 86.1505 290.644 87.4699L291.13 87.5385C291.567 86.2672 291.67 84.8982 291.402 83.5745L291.164 82.691L291.002 82.2148L291.157 81.771C291.543 81.1994 291.956 80.6384 292.38 80.091L292.521 80.0534C292.896 79.8878 293.271 79.6809 293.661 79.5462C293.974 79.4398 294.346 79.5125 294.676 79.4533C295.344 79.3431 295.988 79.0538 296.491 78.5966C296.873 78.2481 297.393 77.4493 296.866 76.992Z"
            fill="#ED7D6B" />
        <path
            d="M300.85 86.7772C300.458 87.2358 300.014 87.6445 299.521 87.9958C299.022 88.348 298.447 88.6844 297.855 88.8566C297.534 88.9506 297.3 88.8473 297.18 88.527L297.121 87.7416C297.176 87.1941 297.383 86.6508 297.848 86.3292L297.769 86.157L298.426 85.7858C299.194 85.3179 299.914 84.7797 300.578 84.1813L300.144 84.0508C299.593 84.5497 299.005 85.0042 298.381 85.4105C297.768 85.8099 297.1 86.2121 296.408 86.4611C296.057 86.5847 295.599 86.6601 295.41 86.2579L295.413 85.373C295.616 84.7112 296.023 84.0952 296.498 83.5987L296.415 83.4375L296.639 83.2825C297.538 82.6493 298.426 81.9941 299.318 81.354L299.229 81.179L298.888 81.2276C298.044 81.8329 297.204 82.4393 296.36 83.0446C296.002 83.3001 295.585 83.6444 295.124 83.6754L294.556 83.3931L294.549 82.7244C294.893 80.8657 296.56 79.6846 298.01 78.6761L297.92 78.4998L297.576 78.5442C296.233 79.4815 294.78 80.5172 294.208 82.1259C294.088 82.4596 293.957 82.8793 294.008 83.2385C294.053 83.5518 294.287 83.7508 294.577 83.8545C294.99 84.0022 295.406 83.9364 295.792 83.7791C295.362 84.2873 294.993 84.8982 294.866 85.5479C294.804 85.8612 294.814 86.2269 295.031 86.4852C295.258 86.7637 295.644 86.8364 295.988 86.823C296.377 86.8054 296.742 86.6642 297.09 86.5013C296.877 86.7596 296.746 87.0771 296.67 87.4107C296.574 87.8477 296.529 88.4368 296.818 88.8163C297.166 89.2777 297.834 89.1875 298.309 89.0125C298.839 88.8094 299.342 88.5405 299.81 88.223C300.361 87.8559 300.854 87.4107 301.284 86.909L300.85 86.7772Z"
            fill="#ED7D6B" />
        <path
            d="M292.135 93.6678L291.826 93.5776C291.326 93.685 290.858 93.361 290.514 93.0301C290.118 92.6548 289.801 92.2044 289.384 91.8491L289.04 91.8046L288.95 91.9796C289.426 92.3831 289.77 92.9172 290.252 93.3166C290.724 93.7053 291.344 93.9529 291.96 93.8224L292.135 93.6678Z"
            fill="#ED7D6B" />
        <path
            d="M272.057 112.95C271.321 114.944 269.823 116.5 268.776 118.321C267.629 120.315 267.271 122.611 267.471 124.885H268.222C268.022 122.602 268.383 120.329 269.554 118.336C270.598 116.555 272.058 115.012 272.784 113.05L272.057 112.95Z"
            fill="#ED7D6B" />
        <path
            d="M167.812 66.8434C166.038 65.8104 164.279 64.7505 162.54 63.6583C159.95 62.0403 157.399 60.3538 154.889 58.6105C153.129 57.3919 151.786 55.4092 150.912 53.4779C150.426 52.4098 150.364 51.1912 150.433 50.017C150.488 49.1104 150.619 48.181 151.036 47.3753C151.948 45.592 154.458 44.8762 156.252 44.3934C158.356 43.8284 160.543 43.5811 162.719 43.6404C166.961 43.7506 171.182 45.0135 174.722 47.3726C178.21 49.6968 182.549 49.3218 186.519 50.309C187.769 50.6196 188.974 51.0741 190.179 51.5248C191.009 51.8382 191.859 52.1584 192.527 52.7434C193.433 53.5399 193.722 54.9613 193.502 56.1048C193.295 57.1822 192.135 57.8815 192.107 59.0274C192.066 60.6145 192.452 62.2097 192.421 63.8078C192.366 66.569 191.412 69.3573 189.511 71.3613C187.607 73.3616 184.718 74.4779 182.005 73.9614C180.714 73.7207 179.515 73.1357 178.338 72.5465C174.77 70.7564 171.262 68.8543 167.812 66.8434Z"
            fill="#FDB082" />
        <path
            d="M179.904 18.249L180.703 18.0699C181.488 18.0699 182.28 18.824 182.883 19.2578C183.933 20.0154 184.873 20.5388 186.085 20.9933C187.139 21.3893 187.776 21.9636 188.22 22.9942L188.213 24.0296C185.686 26.7842 183.072 29.3467 180.228 31.7705C177.566 34.0434 175.221 36.5818 173.063 39.3323C170.938 42.0384 168.986 44.8791 166.944 47.6513C166.142 48.7394 165.47 50.1343 164.513 51.0705C163.597 51.9757 162.375 52.5404 161.211 53.0542C158.921 54.0658 156.521 55.0988 154.025 54.9442C153.27 54.8957 152.513 54.7342 151.866 54.3551C150.096 53.3259 149.569 50.9979 149.679 48.9601C149.834 46.1287 150.881 43.3957 152.42 41.023C154.62 37.6172 157.874 34.7458 160.928 32.1255C164.268 29.2606 167.805 26.6365 171.31 23.9855C173.338 22.4495 175.38 20.9278 177.566 19.6263C178.169 19.2682 179.078 18.5761 179.904 18.249Z"
            fill="#FDB082" />
        <path
            d="M195.874 21.2411C196.639 20.3837 197.283 19.4127 197.589 18.4142C197.847 17.574 197.816 16.6891 197.668 15.8386C197.593 15.4047 197.524 14.9123 197.362 14.5026C197.235 14.1686 197.004 13.9723 197.176 13.5798L197.572 13.0461C198.819 11.6756 199.714 10.0848 200.671 8.51124C201.649 6.90666 202.572 5.31242 203.284 3.56666C203.484 3.07771 203.622 2.40972 203.188 2.11015L202.582 1.99999C201.824 2.08951 201.232 2.67832 200.733 3.25335C198.77 5.5156 197.458 8.36661 195.227 10.3568C195.255 9.74393 194.731 9.19645 194.129 9.06905C193.53 8.94165 192.896 9.16546 192.407 9.54078C192.652 8.90033 192.163 8.13936 191.502 7.94998C190.84 7.7606 190.114 8.0395 189.611 8.50779C189.556 8.0636 189.17 7.72617 188.754 7.56778C188.031 7.28887 187.194 7.43695 186.516 7.80883C185.4 8.40796 184.784 9.42371 184.061 10.4016C183.186 11.5861 182.391 12.8326 181.688 14.1238C180.807 15.7387 180.311 17.5155 180.59 19.3645C180.645 19.7192 180.731 20.0807 180.931 20.3837C181.292 20.9381 181.981 21.2342 182.304 21.8131L182.552 22.1949L183.244 22.5355L183.926 23.3075C184.501 23.9786 185.651 25.4378 186.64 25.2188C188.437 24.8191 190.224 24.3497 191.987 23.8171C193.626 23.3168 194.724 22.5327 195.874 21.2411Z"
            fill="#FDB082" />
        <path
            d="M196.711 11.4105L197.062 12.3057C197.145 12.7086 197.183 13.1183 197.186 13.5315L197.059 13.7278L196.918 13.4386C196.918 13.1011 196.887 12.7637 196.825 12.4297L196.704 11.9442L196.312 11.7755C195.706 11.8202 195.313 12.4779 195.117 12.9806C194.89 13.5625 194.893 14.1169 194.972 14.7195C195.052 15.2945 194.81 15.8936 194.659 16.448L194.628 16.7131C194.139 17.2434 193.636 17.753 193.12 18.2523L192.5 18.5415C192.135 18.4968 191.78 18.4107 191.412 18.3866C190.021 18.2902 188.616 18.6001 187.39 19.2646L187.246 18.7963C188.43 18.1559 189.763 17.8322 191.109 17.877L192.025 17.9699L192.517 18.0491L192.93 17.8288C193.433 17.3467 193.919 16.8509 194.39 16.3447L194.404 16.1966C194.504 15.8007 194.645 15.3944 194.714 14.988C194.766 14.6644 194.638 14.3063 194.638 13.9757C194.642 13.2974 194.821 12.6122 195.189 12.044C195.472 11.6067 196.174 10.9663 196.711 11.4105Z"
            fill="#ED7D6B" />
        <path
            d="M186.402 9.08258C186.016 9.54054 185.686 10.0502 185.424 10.5908C185.155 11.1417 184.918 11.7649 184.845 12.3744C184.804 12.7084 184.945 12.9219 185.279 12.9873L186.064 12.9184C186.595 12.7738 187.097 12.4811 187.338 11.9715L187.521 12.0197L187.783 11.3069C188.117 10.4771 188.526 9.67829 189.012 8.92421L189.208 9.33049C188.809 9.95717 188.454 10.6114 188.158 11.2932C187.869 11.9646 187.579 12.6877 187.445 13.4108C187.376 13.7792 187.38 14.2441 187.81 14.3646L188.681 14.2166C189.305 13.9067 189.842 13.4039 190.251 12.853L190.427 12.9081L190.541 12.6636C191.023 11.6754 191.519 10.6872 192.008 9.70239L192.193 9.76435L192.204 10.1087C191.746 11.0384 191.281 11.9715 190.823 12.8977C190.627 13.2937 190.358 13.762 190.403 14.22L190.775 14.7365L191.433 14.6366C193.213 13.9893 194.108 12.1506 194.865 10.5563L195.051 10.6183L195.062 10.9661C194.359 12.4432 193.574 14.0444 192.083 14.8708C191.77 15.0464 191.381 15.2461 191.019 15.253C190.703 15.2599 190.462 15.0602 190.317 14.795C190.103 14.4094 190.1 13.9858 190.193 13.5795C189.759 14.0891 189.218 14.5505 188.599 14.7847L187.648 14.7744C187.335 14.5919 187.201 14.2269 187.159 13.8825C187.111 13.5003 187.19 13.1181 187.294 12.7463C187.073 12.9942 186.784 13.1801 186.467 13.3075C186.047 13.4728 185.479 13.6174 185.056 13.397C184.542 13.125 184.518 12.4501 184.622 11.9543C184.732 11.3965 184.914 10.8559 185.152 10.3428C185.424 9.74027 185.782 9.18246 186.206 8.67285L186.402 9.08258Z"
            fill="#ED7D6B" />
        <path
            d="M181.037 18.8067L181.175 19.096C181.151 19.6056 181.543 20.0153 181.926 20.3011C182.363 20.6282 182.859 20.8693 183.279 21.2239L183.379 21.5579L183.22 21.6747C182.745 21.2721 182.16 21.0173 181.691 20.6076C181.23 20.2047 180.879 19.6331 180.91 19.003L181.037 18.8067Z"
            fill="#ED7D6B" />
        <path
            d="M178.964 75.4047C184.085 77.1115 189.156 78.7199 194.58 79.016C195.189 79.0508 195.819 79.0711 196.374 78.8236C196.959 78.5546 197.372 78.0275 197.765 77.5216C199.968 74.6675 202.183 71.7985 203.914 68.6376C205.646 65.477 206.893 61.9824 207.007 58.3762C207.069 56.4449 206.759 54.4006 205.543 52.8952C203.085 49.8623 195.916 50.0572 192.3 49.7101C187.046 49.2074 181.84 48.7567 176.671 47.8029C176.568 56.3385 176.468 64.881 176.365 73.4207C176.361 73.7581 176.365 74.1159 176.561 74.3876L177.391 74.8772C177.918 75.0521 178.441 75.2325 178.964 75.4047Z"
            fill="#9F8392" />
        <path
            d="M168.8 45.128C166.644 48.2672 164.396 52.2511 160.405 53.2197L160.267 53.4807L160.784 53.5493C164.943 52.5445 167.278 48.5079 169.526 45.234L168.8 45.128Z"
            fill="#ED7D6B" />
        <path
            d="M189.931 68.6823C189.625 71.6267 189.367 74.571 189.15 77.5219H189.904C190.121 74.571 190.379 71.6267 190.685 68.6823H189.931Z"
            fill="#000100" />
        <path
            d="M246.057 102.847C245.083 100.051 244.167 97.2345 243.302 94.4045L242.576 94.504C243.44 97.334 244.356 100.151 245.331 102.947L246.057 102.847Z"
            fill="#000100" />
        <path
            d="M197.872 124.258C197.696 123.72 197.245 123.125 197.069 122.742C196.591 121.696 196.188 120.612 195.851 119.506C195.165 117.279 194.749 114.981 194.456 112.675C194.291 111.37 194.163 110.061 194.057 108.749H193.306C193.671 113.202 194.236 117.718 195.93 121.885C196.174 122.481 196.436 123.066 196.725 123.638C196.911 124.006 197.104 124.558 197.428 124.823L197.892 124.929L197.872 124.258Z"
            fill="#000100" />
        <path
            d="M222.536 143.505C221.82 141.092 220.225 139.088 218.438 137.362C216.42 135.42 214.182 133.698 212.023 131.912C210.639 130.765 209.252 129.619 207.867 128.472L207.351 128.407L207.217 128.668C209.634 130.67 212.051 132.67 214.468 134.67C216.42 136.285 218.421 137.916 219.94 139.963C220.762 141.068 221.42 142.283 221.809 143.609L222.536 143.505Z"
            fill="#000100" />
        <path
            d="M237.453 54.6992L237.432 54.8311C237.215 56.27 237.101 57.7227 237.094 59.1727C237.091 61.2387 235.779 61.9918 234.023 62.6295C232.77 63.084 231.458 63.3801 230.146 63.6074C227.426 64.066 224.647 64.1507 221.892 63.9582C220.704 63.879 219.386 63.6731 218.663 62.729C217.826 61.6316 218.174 60.0821 218.456 58.7354C218.759 57.3058 218.941 55.8558 219.003 54.4006L219.021 53.9702C219.052 52.8364 219.017 51.6553 219.479 50.6196L219.544 50.4784C220.742 48.0264 223.063 49.538 225.088 49.4413C226.637 49.3727 227.767 49.7037 229.123 49.4237L229.199 49.4144L230.036 49.1562L230.907 48.9048L231.255 48.8494C232.195 48.7498 233.073 48.9248 234.078 48.9933C235.583 49.1076 237.563 49.2626 237.99 51.0985C238.241 52.1825 237.652 53.5867 237.453 54.6992Z"
            fill="#FDB082" />
        <path
            d="M229.233 56.3011C226.802 57.2549 223.996 57.3193 221.565 56.328C220.859 56.0363 220.17 55.6637 219.616 55.1362L219.003 54.4007L219.02 53.9703C219.051 52.8365 219.017 51.6554 219.478 50.6196L219.544 50.4785C220.742 48.0265 223.063 49.5381 225.087 49.4414C226.637 49.3728 227.766 49.7037 229.123 49.4238C229.653 49.5894 230.184 49.7681 230.71 49.9403C231.358 50.1583 232.019 50.3952 232.532 50.8362C235.094 53.0193 230.996 55.6059 229.233 56.3011Z"
            fill="#ED7D6B" />
        <path
            d="M248.519 35.496C249.166 33.9534 249.507 32.2183 249.325 30.5693C249.153 29.0398 247.755 27.3598 246.787 26.2518C245.403 24.6713 243.75 23.3556 242.094 22.074C240.92 21.1619 239.721 20.2563 238.347 19.7054C237.263 19.2715 236.102 19.0718 234.976 18.7585C233.878 18.452 232.804 17.9011 231.674 18.1352C230.597 18.3521 229.564 18.6689 228.572 19.1544C226.616 20.1185 224.912 21.6129 223.744 23.4579C221.995 26.2208 221.11 29.2364 219.86 32.2355C218.914 34.5046 217.664 36.646 216.896 38.992C216.118 41.3713 215.732 43.8839 216.004 46.3975C216.255 48.6883 217.099 51.1014 218.924 52.593C220.163 53.6043 221.61 54.5887 223.156 55.0274C225.304 55.6365 227.573 55.6259 229.767 55.3301C230.765 55.1954 231.599 55.1297 232.546 54.7409C233.503 54.3522 234.412 53.8598 235.304 53.3395C238.351 51.5841 241.123 49.2826 243.237 46.4877C243.833 45.6981 244.07 44.9206 244.518 44.0774C245.107 42.961 245.826 41.9188 246.405 40.7914L246.546 40.5105C247.345 38.8708 247.82 37.1625 248.519 35.496Z"
            fill="#FDB082" />
        <path
            d="M225.218 45.4856C224.234 45.02 223.273 44.5077 222.429 43.8218L221.985 43.433C221.73 43.1951 221.479 42.9368 221.155 42.8022C219.637 42.1728 219.94 44.8696 220.129 45.6226C220.236 46.0599 220.408 46.4876 220.656 46.8656C221.152 47.6201 221.954 48.15 222.829 48.3773C224.013 48.6882 225.432 48.4633 226.503 47.8824C226.919 47.6552 227.722 47.2582 227.374 46.6666L226.623 46.1191C226.155 45.9119 225.683 45.7022 225.218 45.4856Z"
            fill="white" />
        <path
            d="M220.384 25.8066C220.646 22.5661 222.35 19.4472 224.977 17.5224C226.578 16.3482 229.385 15.8558 231.079 17.1367C231.454 17.4225 231.568 17.7221 232.071 17.4328C233.837 16.4239 235.834 15.477 237.897 15.8041C238.523 15.904 239.129 16.1209 239.708 16.3826C241.956 17.395 243.812 19.0753 245.496 20.8417C248.237 23.7096 251.625 27.2228 251.811 31.3024C251.842 32.0193 251.752 32.7349 251.732 33.4518C251.69 34.8008 251.894 36.1647 251.88 37.5176C251.866 38.8749 251.604 40.2791 250.75 41.3362C250.237 41.9656 249.545 42.4377 248.905 42.9518C247.951 43.7117 247.101 44.5898 246.374 45.5542C245.661 46.5011 244.883 47.7332 243.554 47.9026C242.456 48.04 242.714 46.2739 242.528 45.5501C242.273 44.5564 241.953 43.5609 241.767 42.5548C241.639 41.8286 241.278 41.1775 241.082 40.4554C240.672 38.961 240.572 37.3416 239.67 36.0098C238.902 34.8735 237.656 34.1187 236.395 33.5134C235.142 32.9108 233.816 32.4012 232.701 31.5741C230.352 29.839 229.213 26.7049 229.949 24.0026C230.135 23.325 230.315 22.6697 230.277 21.9542L227.952 23.0006C226.709 23.544 225.477 23.992 224.389 24.8018C223.321 25.5965 222.385 26.5717 221.637 27.6694L221.238 28.0661L220.529 27.7593L220.356 26.9498C220.346 26.5717 220.356 26.1857 220.384 25.8066Z"
            fill="#AF565C" />
        <path
            d="M242.666 42.5039C245.775 41.6875 245.668 45.3229 244.487 47.1213C243.75 48.2469 242.673 49.1012 241.588 49.8935C240.658 50.5712 239.154 51.443 238.189 50.2888C237.811 49.8408 237.835 49.2317 237.914 48.6949C238.22 46.6424 239.525 44.4731 241.195 43.2235C241.633 42.8926 242.139 42.6409 242.666 42.5039Z"
            fill="#FDB082" />
        <path
            d="M232.711 22.4332C232.604 24.2261 232.862 26.1065 233.627 27.7486C234.006 28.565 234.519 29.3088 235.2 29.9007C235.965 30.5625 236.874 31.0266 237.797 31.4326C238.038 31.5404 238.093 31.8981 237.762 31.7501C236.809 31.3307 235.875 30.8448 235.066 30.1834C234.319 29.5632 233.723 28.7857 233.289 27.918C232.422 26.175 232.119 24.1507 232.232 22.2194L232.711 22.4332Z"
            fill="#000100" />
        <path
            d="M236.137 24.4293L236.419 24.6714C236.839 26.1375 237.631 27.4839 238.719 28.5544L238.778 28.8061L238.447 28.7173C237.27 27.5631 236.402 26.1348 235.948 24.546L236.137 24.4293Z"
            fill="#000100" />
        <path
            d="M236.526 17.7462C239.002 17.8805 240.951 19.5677 242.455 21.3892L242.101 21.4546C240.727 19.795 238.988 18.242 236.729 18.1215L236.526 17.7462Z"
            fill="#000100" />
        <path
            d="M249.882 33.0279C250.134 34.3191 250.416 35.6617 250.447 36.9811C250.481 38.365 249.738 39.3914 248.801 40.3383L248.35 40.0477C249.269 39.1184 250.003 38.1271 249.968 36.7697C249.937 35.4826 249.658 34.1631 249.414 32.9029L249.882 33.0279Z"
            fill="#000100" />
        <path
            d="M227.377 18.2454L227.68 18.6104C225.514 19.027 223.627 20.4629 222.632 22.4331L222.192 22.1504C223.211 20.1323 225.163 18.6723 227.377 18.2454Z"
            fill="#000100" />
        <path
            d="M225.37 29.2365C225.046 29.1611 224.719 29.1126 224.389 29.1019C223.572 29.0709 222.75 29.2472 222.006 29.6008C221.679 29.7568 220.677 30.0836 221.203 30.4589C221.699 30.8101 222.515 30.6796 223.087 30.6999C224.275 30.7416 225.408 31.1854 226.492 31.664C226.933 31.8607 227.346 32.0945 227.58 31.5849C227.746 31.2202 227.849 30.7133 227.608 30.369C227.346 30.0002 226.768 29.7771 226.375 29.5943C226.052 29.4393 225.718 29.3226 225.37 29.2365Z"
            fill="#AF565C" />
        <path
            d="M236.953 35.1894C238.403 36.6459 239.377 38.1375 239.57 39.2903L239.591 39.4732L239.463 39.5944L239.35 39.5389C237.597 38.2411 236.058 36.8005 234.109 35.7609C233.668 35.524 232.925 35.1732 233.031 34.5868C233.111 34.187 233.462 33.9505 233.84 33.8912C234.619 33.7635 235.555 34.1777 236.189 34.6016L236.953 35.1894Z"
            fill="#AF565C" />
        <path
            d="M225.453 36.1054C225.58 35.5176 225.621 34.7628 225.046 34.3903L224.13 34.3434L223.92 34.5046L223.758 34.6286C223.435 34.9109 223.228 35.3238 223.183 35.7542C223.084 36.0892 223.07 36.4363 223.256 36.7672C223.473 37.1491 224.01 37.3106 224.43 37.2555C225.008 37.1801 225.336 36.6394 225.453 36.1054Z"
            fill="#000100" />
        <path
            d="M236.258 41.5745C236.433 40.9678 236.526 40.1889 235.955 39.7668C235.579 39.491 235.025 39.4841 234.656 39.7826L234.223 40.3449C233.933 40.8576 233.661 41.5325 233.937 42.1069C234.099 42.4419 234.45 42.707 234.829 42.6853C235.59 42.6478 236.037 42.3451 236.258 41.5745Z"
            fill="#000100" />
        <path
            d="M228.889 34.1671L228.486 34.9525C227.777 35.8952 226.888 36.7144 226.076 37.5659C225.253 38.4295 224.395 39.2742 223.603 40.166C223.393 40.3998 223.207 40.6432 223.404 40.9542L224.01 41.6146C224.444 42.0515 224.919 42.4444 225.422 42.8022L225.311 43.1021C224.805 42.7374 224.327 42.3408 223.886 41.9038C223.542 41.5702 222.973 41.1129 222.887 40.6098C222.808 40.1619 223.204 39.8069 223.48 39.5176L224.895 38.0339C225.793 37.087 226.716 36.1576 227.598 35.1894C227.963 34.7831 228.297 34.2666 228.875 34.1671H228.889Z"
            fill="#ED7D6B" />
        <path
            d="M219.086 52.7611L218.869 54.0833C218.824 54.7892 218.779 55.4954 218.735 56.2003C218.649 57.5776 218.559 58.9522 218.469 60.3257H219.096C219.172 59.1109 219.251 57.8909 219.327 56.6765C219.399 55.5574 219.544 54.4208 219.437 53.3086L219.292 52.8672L219.086 52.7611Z"
            fill="#ED7D6B" />
    </g>
    <defs>
        <filter id="filter0_dd_2205_1290" x="0" y="-1.52588e-05" width="394.161" height="312.801"
            filterUnits="userSpaceOnUse" color-interpolation-filters="sRGB">
            <feFlood flood-opacity="0" result="BackgroundImageFix" />
            <feColorMatrix in="SourceAlpha" type="matrix"
                values="0 0 0 0 0 0 0 0 0 0 0 0 0 0 0 0 0 0 127 0" result="hardAlpha" />
            <feOffset dy="1" />
            <feGaussianBlur stdDeviation="1" />
            <feColorMatrix type="matrix" values="0 0 0 0 0 0 0 0 0 0 0 0 0 0 0 0 0 0 0.06 0" />
            <feBlend mode="normal" in2="BackgroundImageFix" result="effect1_dropShadow_2205_1290" />
            <feColorMatrix in="SourceAlpha" type="matrix"
                values="0 0 0 0 0 0 0 0 0 0 0 0 0 0 0 0 0 0 127 0" result="hardAlpha" />
            <feOffset dy="1" />
            <feGaussianBlur stdDeviation="1.5" />
            <feColorMatrix type="matrix" values="0 0 0 0 0 0 0 0 0 0 0 0 0 0 0 0 0 0 0.1 0" />
            <feBlend mode="normal" in2="effect1_dropShadow_2205_1290"
                result="effect2_dropShadow_2205_1290" />
            <feBlend mode="normal" in="SourceGraphic" in2="effect2_dropShadow_2205_1290"
                result="shape" />
        </filter>
    </defs>
</svg>
    