<svg xmlns="http://www.w3.org/2000/svg" width="229" height="362" fill="none">
    <g filter="url(#a)">
        <path fill="#CE7152"
            d="m171.379 197.456 19.666 101.667h-3l-27-98.334 10.334-3.333ZM182.712 188.603l19.667 101.667h-3l-27-98.334 10.333-3.333ZM97.901 197.456 78.236 299.123h3l27-98.334-10.334-3.333ZM86.568 188.603 66.902 290.27h3l27-98.334-10.334-3.333Z" />
        <path fill="#CE7152" d="M176.046 243.456h-83.36v-4.02h83.36v4.02Z" />
        <path fill="#FC697C"
            d="M194.636 184.051c-.595-4.671-2.449-9.071-4.025-13.507-7.012-19.75-8.651-41.378-4.696-61.961 1.253-6.521 3.04-13.37.894-19.656-2.41-7.067-9.217-11.632-15.966-14.825a91.743 91.743 0 0 0-30.154-8.35h-20.644a91.749 91.749 0 0 0-30.154 8.35c-6.75 3.193-13.556 7.758-15.967 14.825-2.145 6.285-.359 13.135.895 19.656 3.956 20.583 2.316 42.211-4.696 61.961-1.576 4.436-3.43 8.836-4.026 13.507-.594 4.671.262 9.788 3.49 13.215 2.41 2.557 5.826 3.882 9.178 4.937 16.59 5.223 34.12 5.687 51.602 5.016 17.482.671 35.013.207 51.602-5.016 3.351-1.055 6.768-2.38 9.178-4.937 3.229-3.427 4.084-8.544 3.489-13.215Z" />
        <path fill="#E85669"
            d="M184.862 169.031c-5.435 20.92-30.947 23.322-48.863 25.398-19.249 2.23-38.517-.447-51.534-15.999-.804-.961-2.272.028-1.608 1.119 10.954 17.984 36.07 19.326 54.582 17.089 11.107-1.343 23.059-2.872 33.206-7.843 7.569-3.708 14.557-10.809 15.393-19.537.073-.764-.98-.981-1.176-.227Z" />
        <path fill="#9F7DFF"
            d="m116.501 61.245-9.333 3.333s-29.333 11.556-28.444 35.778c1.333 24.889 3.333 31.778 3.333 31.778l15.546-6.666 9.121 35.11s19.777-1.556 35.111-6.222c15.333-4.667 34.666-12.667 34.666-12.667l-2.889-35.777 10.667-.667s4.445-56.667-56.667-46.667l-11.111 2.667Z" />
        <path fill="#7A60C4"
            d="M93.64 111.74c-.217-2.822-.229-5.654-.14-8.48.089-2.788.685-5.66.374-8.432-.036-.326-.527-.568-.699-.19-2.248 4.962-1.784 11.795-1.505 17.102.296 5.605.973 11.933 3.247 17.1.426.97 1.72.218 1.58-.667-.874-5.535-2.427-10.791-2.858-16.433ZM170.428 90.067c-1.58-3.978-3.269-8.714-6.214-11.881-.255-.274-.7.01-.61.354 1.195 4.498 3.888 8.738 5.519 13.12 1.673 4.493 2.735 9.128 3.987 13.743.33 1.22 2.065.691 1.857-.511-.876-5.086-2.639-10.042-4.539-14.825Z" />
        <path fill="#373463"
            d="m109.149 41.931-3.415-.408c-1.522-.183-3.061-.368-4.509-.877-2.693-.948-4.92-2.988-6.435-5.41-1.513-2.422-2.358-5.211-2.836-8.027a34.573 34.573 0 0 1 .063-11.896c.244-1.353.593-2.74 1.459-3.805.866-1.066 2.38-1.717 3.653-1.203 2.28-4.06 6.013-7.378 10.373-9.01 4.784-1.79 10.192-1.661 15.023-.001 2.455.842 4.832 2.112 6.517 4.085-1.162-.093-2.564.347-3.684.672 1.818.812 3.884 2.393 4.572 4.261a9.287 9.287 0 0 0-3.425-.2c1.875.675 2.928 2.67 3.461 4.59.644 2.315.791 4.734.934 7.133l.565 9.455c.127 2.1.185 4.417-1.136 6.054-.729.903-1.791 1.47-2.845 1.955a34.327 34.327 0 0 1-17.503 2.995c-.46-.043-.968.079-.832-.363Z" />
        <path fill="#FC8F64"
            d="M128.605 34.682c.214 3.547-3.333 11.774-3.333 11.774s.027.173.08.493c.307 1.627 1.413 6.933 3.467 9.733 2.453 3.334.666 11.107-6.44 14.214-2.587 1.133-5.32.653-7.747-.427-4.253-1.88-7.587-5.573-7.587-5.573 1.334-2.667.894-14.214.894-14.214-8.227-5.56-8.48-13.333-8.48-13.333s-4.414-.227-6.187-3.56c-1.787-3.333 2.44-6.227 2.44-6.227l2.667 4.894c.64-4.974-2.227-14.107-2.227-14.107 12.787-9.893 28.787-4.227 28.787-4.227-.334 9.334 3.666 13.667 3.666 13.667l-.453-4s2.667-1.333 4.227 2.893c1.56 4.214-3.774 8-3.774 8Z" />
        <path fill="#ED784A"
            d="M122.379 70.896c-2.587 1.133-5.32.653-7.747-.427 3.2-2.026 5.613-5.293 6.56-8.973.427-1.653.547-3.493-.32-4.96-.613-1.053-1.693-1.84-2.04-3.013-3.013.213-6.653.106-8.213-2.48 1.96.493-.027.546 1.986.333 4.64.88 9.614-.947 12.747-4.427.307 1.627 1.413 6.934 3.467 9.734 2.453 3.333.666 11.106-6.44 14.213Z" />
        <path fill="#F1E1D4"
            d="m99.002 83.108 4.855 25.454a9.172 9.172 0 0 0 10.266 7.366l46.582-6.447a9.17 9.17 0 0 0 7.836-10.264l-3.589-27.65c-.673-5.198-5.563-8.774-10.723-7.843l-47.848 8.641c-5.018.907-8.333 5.733-7.379 10.743Z" />
        <path fill="#FC8F64"
            d="M115.962 102.789c-.416-1.666-9.583-.749-9.583-.749s7.87-1.863 7.452-3.946c-.416-2.084-9.036.862-9.036.862s7.334-3.667 6.5-5.334c-.833-1.666-9.333 3-9.333 3s-1.683-6.417-3.008-6c-1.325.416-.492 6.751-.492 6.751s-3.667 2.499-4 6.166c-.333 3.668-6.259 26.229-6.259 26.229s-3.38-.063-6.269 2.688l3.779 18s21.333 5.333 15.165-35.167c0 0 3.167-1 3.667-5 0 0 9.27-1.446 8.437-3.28-.833-1.833-7.103-.72-7.103-.72s10.499-1.833 10.083-3.5ZM171.232 102.921c-.113 5.84.216 10.654.844 14.666 3.224-1.172 6.566-2.12 9.703-3.379.965-.388 1.928-.76 2.892-1.124-2.353-5.804-7.979-19.821-8.619-22.653-.812-3.591-4.774-5.588-4.774-5.588s-.006-6.388-1.375-6.627c-1.368-.239-2.195 6.343-2.195 6.343s-9.038-3.511-9.645-1.75c-.608 1.762 7.143 4.435 7.143 4.435s-8.931-1.79-9.071.33c-.14 2.12 7.907 2.934 7.907 2.934s-9.208.295-9.403 2c-.195 1.708 10.456 2.147 10.456 2.147s-6.361-.282-6.947 1.645c-.585 1.927 8.794 2.145 8.794 2.145 1.02 3.9 4.29 4.476 4.29 4.476Z" />
        <path fill="#FC8F64"
            d="m104.712 152.616-11.826 3.507s-.067.066-.2.213c-1.84 1.88-15.867 16.147-18.974 16.453-3.333.334-5.786-2.68 1.174-14.333 3.386-5.68 9.28-9.333 14.493-11.573 5.653-2.44 10.493-3.254 10.493-3.254l4.84 8.987Z" />
        <path fill="#373463"
            d="M92.686 156.336c-1.84 1.88-15.867 16.147-18.974 16.453-3.333.334-5.786-2.68 1.174-14.333 3.386-5.68 9.28-9.333 14.493-11.573-.413 1.506-.653 3.053-.427 4.6.294 2.133 1.774 4.226 3.734 4.853Z" />
        <path fill="#FC8F64"
            d="m109.668 283.311-.859 12.306s.039.085.129.262c1.116 2.382 9.564 20.518 8.763 23.535-.855 3.239-4.536 4.48-13.013-6.121-4.134-5.162-5.49-11.96-5.763-17.628-.304-6.151.63-10.968.63-10.968l10.113-1.386Z" />
        <path fill="#373463"
            d="M108.939 295.879c1.116 2.381 9.564 20.519 8.762 23.535-.854 3.238-4.537 4.481-13.013-6.12-4.133-5.163-5.49-11.962-5.763-17.63 1.267.915 2.631 1.682 4.159 2.011 2.101.472 4.581-.18 5.855-1.796ZM97.49 141.345c-1.4 5.62-.29 10.586 4.223 14.666 0 0 21.712 1.111 35.189 0-11.477 2.347-22.716 3.438-33.361 1.412l7.282 41.699s14.719 1.779 20.582-6.667c0 0 25.196 7.556 40.974-8.221 15.778-15.779 50.663-73.931 30-76.223-20.664-2.292-104.889 33.334-104.889 33.334Z" />
        <path fill="#373463"
            d="M93.712 292.012s8 4.667 16.444 0c0 0 17.334-120.223 8.446-128.667-8.89-8.444-28.223-10.666-35.556 12.444-7.334 23.112 10.666 116.223 10.666 116.223ZM143.866 92.623c0 5.246-4.254 9.5-9.5 9.5-5.247 0-9.5-4.254-9.5-9.5a9.5 9.5 0 0 1 9.5-9.5c5.246 0 9.5 4.253 9.5 9.5ZM82.607 58.117a32.523 32.523 0 0 0 2.682-12.966c0-18.029-14.616-32.645-32.645-32.645C34.616 12.506 20 27.122 20 45.151c0 18.028 14.616 32.644 32.644 32.644 11.076 0 20.857-5.521 26.76-13.956l5.885 3.616-2.682-9.338Z" />
        <path fill="#FFC523"
            d="M72.5 45.15c0 10.967-8.889 19.857-19.855 19.857-10.967 0-19.856-8.89-19.856-19.857 0-10.966 8.889-19.855 19.856-19.855 10.966 0 19.856 8.889 19.856 19.855Z" />
        <path fill="#FC697C"
            d="M49.743 37.998c1.734 1.216 1.686 4.001.362 5.656-1.322 1.653-3.493 2.376-5.583 2.71-.46.073-.927.133-1.39.073-1.513-.196-2.564-1.57-3.366-2.868-.806-1.306-1.552-2.962-.807-4.303.605-1.09 2.07-1.503 3.264-1.147 1.194.355 2.123 1.332 2.718 2.427a3.12 3.12 0 0 1 1.622-2.744 3.117 3.117 0 0 1 3.18.196ZM63.735 37.998c1.735 1.216 1.687 4.001.364 5.656-1.323 1.653-3.493 2.376-5.585 2.71-.46.073-.927.133-1.388.073-1.515-.196-2.566-1.57-3.368-2.868-.806-1.306-1.551-2.962-.806-4.303.606-1.09 2.07-1.503 3.264-1.147 1.195.355 2.122 1.332 2.719 2.427a3.119 3.119 0 0 1 1.62-2.744 3.117 3.117 0 0 1 3.18.196Z" />
        <path fill="#fff"
            d="M41.841 50.109c.51 5.521 5.15 9.844 10.804 9.844 5.653 0 10.293-4.323 10.804-9.844H41.841Z" />
        <path fill="#2D2B52"
            d="M188.945 133.992c-6.766 6.239-14.256 11.587-22.696 15.31-6.239 2.753-12.518 4.062-18.987 4.872a.482.482 0 0 0-.404.049c-3 .365-6.037.637-9.137.883-1.182.093-1.167 1.709 0 1.822 2.532.247 5.153.212 7.793-.032-1.424 3.162-2.684 6.399-4.291 9.49-2.037 3.918-4.656 7.433-6.876 11.228-.418.716.608 1.557 1.17.904 2.876-3.355 5.04-7.43 7.086-11.326 1.719-3.273 3.508-6.862 4.598-10.481 6.246-.788 12.529-2.712 17.989-5.033 9.261-3.94 17.716-9.51 24.16-17.28.233-.282-.129-.659-.405-.406ZM133.016 184.434c.041-.398-.503-.462-.69-.187-1.873 2.76-3.208 5.577-5.602 7.992-2.068 2.085-4.562 3.544-7.26 4.548.249-4.083-.07-8.325-.331-12.192-.364-5.392-.807-11.599-3.005-16.58-.119-.271-.552-.128-.543.147.189 5.478 1.609 10.933 1.972 16.433.284 4.311-.124 8.605-.276 12.889-.156.043-.311.092-.468.134-1.105.286-.661 1.942.424 1.74a55.138 55.138 0 0 0 .033 3.124c.034.749 1.132.941 1.331.18.329-1.263.545-2.579.696-3.919 6.223-2.199 13.02-7.639 13.719-14.309ZM97.021 277.178c-1.169-5.225-1.938-10.54-2.604-15.85-1.238-9.872-2.145-19.796-3.042-29.704a1263.302 1263.302 0 0 1-2.358-30.2c-.666-10.03-.585-20.271-1.764-30.246-.06-.502-.78-.528-.802 0-.427 9.995.662 20.264 1.233 30.246a1213.865 1213.865 0 0 0 2.228 31.512c.825 9.89 1.715 19.786 2.932 29.638a185.26 185.26 0 0 0 2.224 13.847c.863 4.281 1.635 9.568 4.132 13.228.2.292.743.216.717-.196-.25-4.096-1.998-8.261-2.896-12.275ZM199.747 109.002c-8.12 1.455-16.192 4.164-24.075 6.567a458.91 458.91 0 0 0-23.663 7.934c-15.341 5.606-30.088 12.267-44.772 19.374-.302.146-.038.593.263.45 14.943-7.102 30.517-13.19 46.105-18.716a502.399 502.399 0 0 1 22.524-7.384c7.952-2.404 16.144-4.142 24.044-6.678.996-.32.582-1.727-.426-1.547Z" />
        <path fill="#7A60C4"
            d="M164.577 113.027c-4.244-.464-8.974.618-13.22 1.06-4.414.462-9.031.622-13.34 1.731-.515.132-.375.859.121.891 4.372.274 8.861-.42 13.219-.791a69.019 69.019 0 0 1 1.886-.129 105.953 105.953 0 0 0-34.533 14.244c-.445.284-.049.974.415.71 13.705-7.812 29.134-12.913 44.798-14.692.868-.098 1.151-1.033.867-1.612.793-.268.567-1.328-.213-1.412Z" />
        <path fill="#ED784A"
            d="M89.056 130.142c.11-.777-.955-1.123-1.205-.332-1.25 3.945-.856 8.272-.188 12.277.054.33.62.254.582-.078-.456-4.062.255-7.872.811-11.867Z" />
    </g>
    <defs>
        <filter id="a" width="228.747" height="361.712" x="0" y="0"
            color-interpolation-filters="sRGB" filterUnits="userSpaceOnUse">
            <feFlood flood-opacity="0" result="BackgroundImageFix" />
            <feColorMatrix in="SourceAlpha" result="hardAlpha"
                values="0 0 0 0 0 0 0 0 0 0 0 0 0 0 0 0 0 0 127 0" />
            <feMorphology in="SourceAlpha" radius="5" result="effect1_dropShadow_2168_1078" />
            <feOffset dy="10" />
            <feGaussianBlur stdDeviation="5" />
            <feColorMatrix values="0 0 0 0 0 0 0 0 0 0 0 0 0 0 0 0 0 0 0.04 0" />
            <feBlend in2="BackgroundImageFix" result="effect1_dropShadow_2168_1078" />
            <feColorMatrix in="SourceAlpha" result="hardAlpha"
                values="0 0 0 0 0 0 0 0 0 0 0 0 0 0 0 0 0 0 127 0" />
            <feMorphology in="SourceAlpha" radius="5" result="effect2_dropShadow_2168_1078" />
            <feOffset dy="20" />
            <feGaussianBlur stdDeviation="12.5" />
            <feColorMatrix values="0 0 0 0 0 0 0 0 0 0 0 0 0 0 0 0 0 0 0.1 0" />
            <feBlend in2="effect1_dropShadow_2168_1078" result="effect2_dropShadow_2168_1078" />
            <feBlend in="SourceGraphic" in2="effect2_dropShadow_2168_1078" result="shape" />
        </filter>
    </defs>
</svg>